<?xml version="1.0" encoding="utf-8"?>
<!-- Generator: Adobe Illustrator 25.4.1, SVG Export Plug-In . SVG Version: 6.00 Build 0)  -->
<svg version="1.1"
	 id="Front" xmlns:ev="http://www.w3.org/2001/xml-events" xmlns:v="http://schemas.microsoft.com/visio/2003/SVGExtensions/"
	 xmlns="http://www.w3.org/2000/svg" xmlns:xlink="http://www.w3.org/1999/xlink" x="0px" y="0px" viewBox="0 0 1202 107.6"
	 enable-background="new 0 0 1202 107.6" xml:space="preserve"
	 width="2432">
<symbol  id="Latch" viewBox="-15.75 -48.5 31.5 97">
	<rect x="-15.75" y="-48.5" fill="#050505" width="31.5" height="97"/>
	<rect x="-14.95" y="-46.5" fill="#323232" width="30.2" height="65.7"/>
	
		<linearGradient id="SVGID_1_" gradientUnits="userSpaceOnUse" x1="-62.9" y1="-183.5238" x2="-62.9" y2="-161.7717" gradientTransform="matrix(1 0 0 1 63.05 194)">
		<stop  offset="0" style="stop-color:#323232"/>
		<stop  offset="0.0645" style="stop-color:#2D2D2D"/>
		<stop  offset="0.1946" style="stop-color:#282828"/>
		<stop  offset="0.4721" style="stop-color:#232323"/>
		<stop  offset="1" style="stop-color:#1E1E1E"/>
	</linearGradient>
	<rect x="-14.95" y="10.5" fill="url(#SVGID_1_)" width="30.2" height="21.8"/>
	
		<linearGradient id="SVGID_00000036949941652839894270000000738109616970982818_" gradientUnits="userSpaceOnUse" x1="-62.9" y1="-161.7717" x2="-62.9" y2="-153.3034" gradientTransform="matrix(1 0 0 1 63.05 194)">
		<stop  offset="0.2709" style="stop-color:#646464"/>
		<stop  offset="0.6284" style="stop-color:#2D2D2D"/>
		<stop  offset="0.919" style="stop-color:#212121"/>
	</linearGradient>
	<rect x="-14.95" y="32.2" fill="url(#SVGID_00000036949941652839894270000000738109616970982818_)" width="30.2" height="8.5"/>
	
		<linearGradient id="SVGID_00000139258310686647851160000001801446385936006791_" gradientUnits="userSpaceOnUse" x1="-62.8982" y1="-240.437" x2="-62.9017" y2="-235.416" gradientTransform="matrix(1 0 0 1 63.05 194)">
		<stop  offset="0.0522" style="stop-color:#2B2B2B"/>
		<stop  offset="0.2432" style="stop-color:#212121"/>
		<stop  offset="0.4721" style="stop-color:#191919"/>
		<stop  offset="0.8567" style="stop-color:#232323"/>
	</linearGradient>
	<rect x="-14.95" y="-46.4" fill="url(#SVGID_00000139258310686647851160000001801446385936006791_)" width="30.2" height="5"/>
</symbol>
<symbol  id="New_Symbol" viewBox="-88.6864 -18.1193 177.3728 36.2386">
	<g>
		<path fill="#373737" d="M-44.9953-17.2807l107.6906-0.0001v32.2326l-107.6906,0.0001
			C-44.9953,14.9519-44.9953-17.2807-44.9953-17.2807z M-41.6416-2.5618v4.9374l4.2853,2.5153l4.2853-2.5153v-4.9374l-4.2853-2.5153
			L-41.6416-2.5618z M33.8163-2.5619L29.531-5.0771l-4.2853,2.5153v4.9374l4.2853,2.5153l4.2853-2.5153V-2.5619z M40.71,4.8908
			l4.2853-2.5153v-4.9374L40.71-5.0771l-4.2853,2.5153v4.9374L40.71,4.8908z M22.3579-2.5618l-4.2853-2.5153l-4.2853,2.5153v4.9374
			l4.2853,2.5153l4.2853-2.5153V-2.5618z M11.4584-2.5618L7.1732-5.0771L2.8879-2.5618v4.9374l4.2853,2.5153l4.2853-2.5153
			L11.4584-2.5618z M0.2795-2.5618l-4.2853-2.5153l-4.2853,2.5153v4.9374l4.2853,2.5153l4.2853-2.5153V-2.5618z M-10.9926-2.5618
			l-4.3784-2.4221l-4.2853,2.5153v4.9374l4.2853,2.5153l4.2853-2.5153v-5.0305L-10.9926-2.5618L-10.9926-2.5618z M-21.8921-2.5618
			l-4.2853-2.5153l-4.2853,2.5153v4.9374l4.2853,2.5153l4.2853-2.5153V-2.5618z M-36.4248-11.9707v4.9374l4.2853,2.5153
			l4.2853-2.5153v-4.9374l-4.2853-2.4221L-36.4248-11.9707z M-25.339-11.9708v4.9374l4.2853,2.5153l4.2853-2.5153v-4.9374
			l-4.2853-2.5153L-25.339-11.9708z M-14.16-11.9708v4.9374l4.2853,2.5153l4.2853-2.5153v-4.9374l-4.2853-2.5153L-14.16-11.9708z
			 M-3.0742-11.9708v4.9374L1.211-4.5181l4.2853-2.5153v-4.9374L1.211-14.486L-3.0742-11.9708z M8.0116-11.9708v4.9374
			l4.2853,2.5153l4.2853-2.5153v-4.9374l-4.2853-2.5153L8.0116-11.9708z M19.1905-11.9708v4.9374l4.2853,2.5153l4.2853-2.5153
			v-4.9374l-4.2853-2.5153L19.1905-11.9708z M30.5558-11.9708v4.9374l4.2853,2.5153l4.2853-2.5153v-4.9374l-4.2853-2.5153
			L30.5558-11.9708z M41.6416-11.9708v4.9374l4.2853,2.5153l4.2853-2.5153v-4.9374l-4.2853-2.5153L41.6416-11.9708z M61.3911-7.0335
			v-4.9374l-4.2853-2.5153l-4.2853,2.5153v4.9374l4.2853,2.5153L61.3911-7.0335z M55.8947-2.5619l-4.2853-2.5153l-4.2853,2.5153
			v4.9374l4.2853,2.5153l4.2853-2.5153V-2.5619z M61.3911,11.6913V6.6608l-4.2853-2.5153l-4.2853,2.5153v4.9374l4.2853,2.5153
			L61.3911,11.6913z M50.2121,11.6913V6.6608l-4.2853-2.5153l-4.2853,2.5153v4.9374l4.2853,2.5153L50.2121,11.6913z
			 M39.1263,11.6913V6.6608L34.841,4.1455l-4.2853,2.5153v4.9374l4.2853,2.5153L39.1263,11.6913z M27.8542,11.6913V6.6608
			l-4.2853-2.5153l-4.2853,2.5153v4.9374l4.2853,2.5153L27.8542,11.6913z M16.6753,11.6913V6.6608L12.39,4.1455L8.1047,6.6608
			v4.9374l4.2853,2.5153L16.6753,11.6913z M5.4963,11.6913V6.6608L1.2111,4.1455l-4.2853,2.5153v4.9374l4.2853,2.5153
			L5.4963,11.6913z M-5.5895,11.6913V6.6608l-4.2853-2.5153L-14.16,6.6608v4.9374l4.2853,2.5153L-5.5895,11.6913z M-16.7684,11.6913
			V6.6608l-4.2853-2.5153l-4.2853,2.5153v4.9374l4.2853,2.5153L-16.7684,11.6913z M-27.8542,11.6914V6.6609l-4.2853-2.4221
			l-4.2853,2.5153v4.9374l4.2853,2.4221L-27.8542,11.6914z"/>
		<path fill="#444444" d="M-88.6864-18.026l177.3727-0.0001V18.026l-177.3727,0.0001V-18.026z M49.0942,11.505v-23.4758H28.32
			v23.3826h20.7742V11.505z M22.5442,11.505v-23.4758H-0.6521v23.3826L22.5442,11.505L22.5442,11.505z M-5.8689,11.505v-23.4758
			h-23.1963v23.3826L-5.8689,11.505z"/>
		<g>
			<rect x="-48.2558" y="-18.1192" fill="#CCCCCC" width="134.0542" height="2.0495"/>
			<rect x="85.7984" y="-18.1193" fill="#555555" width="2.8879" height="2.0495"/>
		</g>
		<g>
			<rect x="-48.2558" y="15.8834" fill="#CCCCCC" width="134.0542" height="2.0495"/>
			<rect x="85.7985" y="15.8834" fill="#555555" width="2.8879" height="2.0495"/>
		</g>
		<rect x="-75.1785" y="-15.2313" fill="#141414" width="26.8295" height="29.8105"/>
		<path fill="#4B4B4B" d="M-48.9079,11.6914v-23.569c0-1.0247-0.8384-1.8632-1.8632-1.8632h-21.24
			c-1.0247,0-1.8632,0.8384-1.8632,1.8632v23.5689c0,1.0247,0.8384,1.8632,1.8632,1.8632h21.24
			C-49.7463,13.5545-48.9079,12.7161-48.9079,11.6914z"/>
		<path fill="#4B4B4B" d="M-48.9079,11.6914v-23.569c0-1.0247-0.8384-1.8632-1.8632-1.8632h-21.24
			c-1.0247,0-1.8632,0.8384-1.8632,1.8632v23.5689c0,1.0247,0.8384,1.8632,1.8632,1.8632h21.24
			C-49.7463,13.5545-48.9079,12.7161-48.9079,11.6914z"/>
		<path fill="#4B4B4B" d="M-48.9079,11.6914v-23.569c0-1.0247-0.8384-1.8632-1.8632-1.8632h-21.24
			c-1.0247,0-1.8632,0.8384-1.8632,1.8632v23.5689c0,1.0247,0.8384,1.8632,1.8632,1.8632h21.24
			C-49.7463,13.5545-48.9079,12.7161-48.9079,11.6914z"/>
		<path fill="none" stroke="#141414" stroke-width="0.5" stroke-miterlimit="10" d="M-48.7216-12.1571h-21.4263
			c-1.1179,0-1.9563,0.9316-1.9563,1.9563V9.8281c0,1.1179,0.9316,1.9563,1.9563,1.9563h21.4263"/>
		<polygon fill="#262626" points="-77.3211,14.2998 -77.3211,-13.3681 -79.1843,-15.3244 -86.8232,-15.3244 -86.8232,14.2998 		"/>
		<rect x="47.6037" y="-11.9708" fill="#262626" width="6.5211" height="23.3826"/>
		<rect x="-34.4684" y="-11.9708" fill="#262626" width="5.4963" height="23.3826"/>
		<rect x="-6.5211" y="-11.9708" fill="#262626" width="2.0495" height="23.3826"/>
		<rect x="-1.5837" y="-11.9708" fill="#262626" width="2.0495" height="23.3826"/>
		<rect x="21.8921" y="-11.9708" fill="#262626" width="2.0495" height="23.3826"/>
		<rect x="26.8295" y="-11.9708" fill="#262626" width="2.0495" height="23.3826"/>
		
			<radialGradient id="SVGID_00000103252070629555236620000002602321737451277224_" cx="70609.3203" cy="2013.943" r="22.2371" gradientTransform="matrix(-9.242488e-16 0.8651 -0.8651 1.345549e-07 1687.1328 -61088.7773)" gradientUnits="userSpaceOnUse">
			<stop  offset="0.2378" style="stop-color:#414141"/>
			<stop  offset="0.535" style="stop-color:#323232"/>
			<stop  offset="0.9672" style="stop-color:#141414"/>
		</radialGradient>
		<circle fill="url(#SVGID_00000103252070629555236620000002602321737451277224_)" cx="-61.3911" cy="-0.1397" r="8.85"/>
		<circle fill="none" stroke="#DB6423" stroke-width="1.5" stroke-miterlimit="10" cx="-61.3911" cy="-0.1397" r="5.8689"/>
		<g>
			<polygon fill="#141414" points="-49.8395,13.6477 -49.0942,13.6477 -49.0942,11.8777 -50.119,11.8777 -50.119,-12.1571 
				-49.0942,-12.1571 -49.0942,-13.9271 -49.8395,-13.9271 -49.8395,-18.026 -48.2558,-18.026 -48.2558,18.1193 -49.8395,18.1193 
							"/>
		</g>
		<rect x="85.7985" y="-16.1629" fill="#262626" width="2.8879" height="31.86"/>
		<g id="drive-label_00000168826585900943739950000011152914337084093605_">
			<path id="label_00000036940015987350604260000018073093209601403578_" fill="#262626" d="M82.0721,9.6418v-19.7495
				c0-1.0247-0.9316-1.9563-1.9563-1.9563H61.1116l-3.54,3.3537V9.6418c0,1.0247,0.9316,1.9563,1.9563,1.9563h20.5879
				C81.1406,11.5981,82.0721,10.6665,82.0721,9.6418z"/>
			<g id="label-text_00000144333679418563414970000001006003541761703065_" display="none">
				<g display="inline">
					<path fill="#D6D7D9" d="M66.7942,3.9592h-1.1179v4.5647c-0.4658-0.3726-0.9316-0.7453-1.5837-0.9316v1.1179
						c0.2795,0.0932,0.6521,0.2795,1.0247,0.5589c0.3726,0.2795,0.6521,0.6521,0.7453,1.0247h0.9316V3.9592L66.7942,3.9592z"/>
					<path fill="#D6D7D9" d="M69.7753,10.2008c0.6521,0,1.1179-0.1863,1.3974-0.6521c0.3726-0.5589,0.6521-1.3974,0.6521-2.5153
						c0-1.2111-0.1863-2.0495-0.6521-2.5153C70.8,4.0523,70.3342,3.866,69.7753,3.866c-0.6521,0-1.1179,0.2795-1.4905,0.7453
						c-0.3726,0.4658-0.559,1.3042-0.559,2.5153s0.1863,2.0495,0.6521,2.5153C68.7506,10.0144,69.2163,10.2008,69.7753,10.2008z
						 M69.7753,9.2692c-0.1863,0-0.2795-0.0932-0.3726-0.1863c-0.0932-0.0932-0.1863-0.2795-0.2795-0.4658
						C69.03,8.3376,69.03,7.7786,69.03,7.0334c0-0.7453,0-1.2111,0.0932-1.4905c0.0932-0.2795,0.1863-0.4658,0.2795-0.5589
						c0.0932-0.0932,0.2795-0.0932,0.3726-0.0932s0.2795,0.0932,0.3726,0.0932c0.0932,0.0932,0.1863,0.2795,0.2795,0.4658
						c0.0932,0.2795,0.0932,0.8384,0.0932,1.5837s0,1.2111-0.0932,1.4905c-0.0932,0.2795-0.1863,0.4658-0.2795,0.5589
						C70.0548,9.176,69.9616,9.2692,69.7753,9.2692z"/>
					<path fill="#D6D7D9" d="M73.5948,3.9592V7.406h-1.2111v0.7453h3.3537V7.406h-1.2111V3.9592H73.5948z"/>
					<path fill="#D6D7D9" d="M76.2963,8.1513h1.6768c0.3726,0,0.559,0,0.7453,0s0.2795-0.0932,0.4658-0.1863
						c0.0932-0.0932,0.2795-0.1863,0.2795-0.3726c0.0932-0.1863,0.0932-0.2795,0.0932-0.4658s-0.0932-0.3726-0.1863-0.5589
						c-0.0932-0.1863-0.2795-0.2795-0.4658-0.3726c0.2795-0.0932,0.4658-0.1863,0.559-0.3726
						C79.5569,5.636,79.65,5.4497,79.65,5.1702c0-0.1863,0-0.3726-0.0932-0.5589s-0.1863-0.2795-0.3726-0.4658
						c-0.1863-0.1863-0.3726-0.1863-0.559-0.1863c-0.1863,0-0.4658,0-1.0247,0h-1.3974L76.2963,8.1513L76.2963,8.1513z
						 M77.1348,5.7292V4.6113h0.7453c0.2795,0,0.4658,0,0.559,0s0.1863,0.0932,0.2795,0.1863
						c0.0932,0.0932,0.0932,0.1863,0.0932,0.3726c0,0.0932,0,0.1863-0.0932,0.2795C78.6253,5.5429,78.5322,5.636,78.439,5.636
						s-0.3726,0.0932-0.7453,0.0932L77.1348,5.7292L77.1348,5.7292z M77.1348,7.406V6.4744h0.559c0.3726,0,0.559,0,0.6521,0
						c0.1863,0,0.2795,0.0932,0.3726,0.1863c0.0932,0.0932,0.0932,0.1863,0.0932,0.3726c0,0.0932,0,0.2795-0.0932,0.2795
						S78.5321,7.406,78.439,7.4992c-0.0932,0-0.2795,0-0.7453,0h-0.5589V7.406z"/>
					<path fill="#D6D7D9" d="M64.3721,0.2329l0.8384,0.0932c0.0932-0.2795,0.1863-0.4658,0.2795-0.6521s0.3726-0.1863,0.6521-0.1863
						s0.4658,0.0932,0.6521,0.1863c0.0932,0.0932,0.1863,0.2795,0.1863,0.3726s0,0.1863-0.0932,0.2795s-0.1863,0.0932-0.2795,0.1863
						c-0.0932,0-0.2795,0.0932-0.6521,0.1863c-0.4658,0.0932-0.7453,0.2795-0.9316,0.3726
						c-0.2795,0.1863-0.3726,0.4658-0.3726,0.8384c0,0.1863,0.0932,0.3726,0.1863,0.5589c0.0932,0.1863,0.2795,0.3726,0.559,0.4658
						c0.2795,0.0932,0.4658,0.1863,0.8384,0.1863c0.559,0,0.9316-0.0932,1.2111-0.3726c0.2795-0.1863,0.3726-0.5589,0.3726-0.9316
						h-0.8384c0,0.1863-0.0932,0.3726-0.2795,0.4658c-0.0932,0.0932-0.2795,0.1863-0.559,0.1863s-0.4658-0.0932-0.559-0.1863
						C65.49,2.1892,65.49,2.096,65.49,2.0029c0-0.0932,0-0.1863,0.0932-0.2795s0.3726-0.1863,0.7453-0.2795
						c0.3726-0.0932,0.7453-0.1863,0.9316-0.2795s0.3726-0.2795,0.4658-0.4658s0.1863-0.3726,0.1863-0.6521
						s-0.0932-0.4658-0.1863-0.6521s-0.2795-0.3726-0.559-0.4658c-0.2795-0.0932-0.559-0.1863-0.9316-0.1863
						c-0.559,0-0.9316,0.0932-1.2111,0.3726C64.6516-0.6056,64.4653-0.2329,64.3721,0.2329z"/>
					<path fill="#D6D7D9" d="M72.3837-1.1645h-0.9316l-0.3726,0.9316h-1.6768L69.03-1.1645h-0.9316l1.5837,4.1921h0.9316
						L72.3837-1.1645z M70.8,0.5123L70.241,2.096l-0.559-1.5837H70.8z"/>
					<path fill="#D6D7D9" d="M73.5016-1.1645v3.4468h-1.3042v0.7453h3.3537V2.2823H74.34v-3.4468H73.5016z"/>
					<path fill="#D6D7D9" d="M79.5569-1.1645h-0.9316l-0.3726,0.9316h-1.6768l-0.3726-0.9316h-0.9316l1.5837,4.1921h0.9316
						L79.5569-1.1645z M77.9732,0.5123l-0.559,1.5837l-0.559-1.5837H77.9732z"/>
					<path fill="#D6D7D9" d="M73.129-3.3071l-0.6521-0.0932c0,0.0932-0.0932,0.1863-0.0932,0.2795
						c-0.0932,0.0932-0.1863,0.0932-0.2795,0.0932s-0.2795-0.0932-0.3726-0.1863c-0.0932-0.0932-0.1863-0.3726-0.1863-0.7453
						c0.1863,0.1863,0.3726,0.2795,0.559,0.2795c0.2795,0,0.4658-0.0932,0.6521-0.2795s0.2795-0.4658,0.2795-0.7453
						c0-0.3726-0.0932-0.6521-0.2795-0.8384s-0.4658-0.2795-0.7453-0.2795c-0.3726,0-0.6521,0.0932-0.8384,0.3726
						c-0.1863,0.2795-0.2795,0.6521-0.2795,1.3042s0.0932,1.0247,0.3726,1.3042s0.559,0.3726,0.8384,0.3726
						c0.2795,0,0.4658-0.0932,0.6521-0.1863C72.9426-2.7482,73.0358-3.0277,73.129-3.3071z M71.6384-4.7045
						c0-0.1863,0.0932-0.3726,0.1863-0.4658c0.0932-0.0932,0.1863-0.1863,0.2795-0.1863s0.1863,0,0.2795,0.0932
						s0.0932,0.2795,0.0932,0.4658s0,0.3726-0.0932,0.4658c-0.0932,0.0932-0.1863,0.1863-0.2795,0.1863
						s-0.1863-0.0932-0.2795-0.1863C71.7316-4.3319,71.6384-4.5182,71.6384-4.7045z"/>
					<path fill="#D6D7D9" d="M75.1784-4.6114v0.5589h1.3974v-1.3042c-0.1863-0.0932-0.3726-0.2795-0.6521-0.3726
						c-0.2795-0.0932-0.559-0.1863-0.8384-0.1863c-0.3726,0-0.6521,0.0932-0.9316,0.1863c-0.2795,0.0932-0.4658,0.3726-0.559,0.6521
						s-0.1863,0.5589-0.1863,0.8384c0,0.3726,0.0932,0.6521,0.1863,0.9316c0.1863,0.2795,0.3726,0.4658,0.6521,0.6521
						c0.1863,0.0932,0.4658,0.1863,0.8384,0.1863s0.7453-0.0932,0.9316-0.2795s0.3726-0.3726,0.4658-0.7453l-0.5589-0.0931
						c-0.0932,0.1863-0.0932,0.2795-0.2795,0.3726c-0.0932,0.0932-0.2795,0.1863-0.4658,0.1863
						c-0.2795,0-0.559-0.0932-0.6521-0.2795c-0.1863-0.1863-0.2795-0.4658-0.2795-0.8384s0.0932-0.652,0.2795-0.8383
						s0.3726-0.2795,0.6521-0.2795c0.1863,0,0.2795,0,0.4658,0.0932s0.2795,0.0932,0.3726,0.1863v0.4658L75.1784-4.6114
						L75.1784-4.6114z"/>
					<path fill="#D6D7D9" d="M77.2279-5.8224v3.3537H77.88v-1.2111c0.1863,0.1863,0.4658,0.3726,0.6521,0.3726
						c0.2795,0,0.559-0.0932,0.7453-0.2795s0.2795-0.5589,0.2795-0.9316s-0.0932-0.7453-0.2795-0.9316
						c-0.1863-0.1863-0.4658-0.3726-0.7453-0.3726c-0.0932,0-0.2795,0-0.3726,0.0932C78.0663-5.6361,77.88-5.543,77.7869-5.4498
						v-0.3726H77.2279L77.2279-5.8224z M77.88-4.5182c0-0.2795,0-0.4658,0.0932-0.5589c0.0932-0.1863,0.2795-0.2795,0.4658-0.2795
						c0.1863,0,0.2795,0.0932,0.3726,0.1863c0.0931,0.0932,0.1863,0.2795,0.1863,0.5589c0,0.2795-0.0932,0.4658-0.1863,0.5589
						c-0.0932,0.0932-0.1863,0.1863-0.3726,0.1863c-0.1863,0-0.2795-0.0932-0.3726-0.1863C77.88-4.1456,77.88-4.3319,77.88-4.5182z"
						/>
					<path fill="#D6D7D9" d="M69.9616-7.8719v0.6521h2.3289v-0.4658c-0.1863-0.1863-0.3726-0.4658-0.559-0.8384
						c-0.1863-0.3726-0.3726-0.7453-0.4658-1.1179s-0.1863-0.7453-0.1863-1.0247h-0.6521c0,0.4658,0.0932,0.9316,0.2795,1.4905
						c0.1863,0.4658,0.4658,0.9316,0.7453,1.3042C71.4521-7.8719,69.9616-7.8719,69.9616-7.8719z"/>
					<path fill="#D6D7D9" d="M72.8495-10.6666v0.6521h0.6521v-0.6521H72.8495z"/>
					<path fill="#D6D7D9" d="M76.2963-10.1077v-0.6521h-2.3289c0,0.2795,0.0932,0.4658,0.1863,0.6521
						c0.0932,0.1863,0.3726,0.4658,0.7453,0.8384c0.2795,0.2795,0.4658,0.4658,0.559,0.5589
						c0.0932,0.0932,0.0932,0.2795,0.0932,0.3726c0,0.1863,0,0.2795-0.0932,0.3726C75.3648-7.872,75.2717-7.872,75.0854-7.872
						c-0.1863,0-0.2795,0-0.3726-0.0932c-0.0932-0.0932-0.0932-0.1863-0.1863-0.3726l-0.4658,0.0932
						c0,0.3726,0.1863,0.6521,0.3726,0.8384c0.1863,0.1863,0.4658,0.2795,0.7453,0.2795c0.3726,0,0.6521-0.0932,0.8384-0.2795
						s0.2795-0.3726,0.2795-0.6521c0-0.1863,0-0.2795-0.0932-0.4658s-0.1863-0.2795-0.2795-0.4658
						c-0.0932-0.0932-0.1863-0.2795-0.4658-0.4658c-0.1863-0.1863-0.3726-0.2795-0.3726-0.3726
						c-0.0932-0.0932-0.0932-0.0932-0.0932-0.1863L76.2963-10.1077L76.2963-10.1077z"/>
					<path fill="#D6D7D9" d="M76.8553-10.6666v3.4468h0.6521V-9.083l0.7453,0.9316h0.8384L78.2527-9.083l0.9316-1.5837H78.439
						l-0.6521,1.1179l-0.2795-0.2795v-0.8384L76.8553-10.6666L76.8553-10.6666z"/>
				</g>
				<g display="inline">
					<g>
						<path fill="none" stroke="#D6D7D9" stroke-width="0.491" stroke-miterlimit="10" d="M62.7884-7.4061v0.9316
							c0,0.6521,0.559,1.2111,1.2111,1.2111l0,0c0.6521,0,1.2111-0.5589,1.2111-1.2111v-0.9316"/>
						<path fill="#D6D7D9" d="M62.4158-10.294h3.1674v3.1674h-3.1674V-10.294z M64.8379-8.7103
							c0-0.4658-0.3726-0.8384-0.8384-0.8384s-0.8384,0.3726-0.8384,0.8384s0.3726,0.8384,0.8384,0.8384
							C64.4653-7.8719,64.8379-8.2445,64.8379-8.7103z"/>
					</g>
				</g>
			</g>
		</g>
		
			<line fill="none" stroke="#141414" stroke-width="0.75" stroke-miterlimit="10" x1="-48.2558" y1="11.505" x2="-34.4684" y2="11.505"/>
		
			<line fill="none" stroke="#999999" stroke-width="0.75" stroke-miterlimit="10" x1="-48.2558" y1="10.7598" x2="-34.4684" y2="10.7598"/>
		
			<line fill="none" stroke="#141414" stroke-width="0.75" stroke-miterlimit="10" x1="-48.2558" y1="-12.1571" x2="-34.4685" y2="-12.1571"/>
		
			<line fill="none" stroke="#999999" stroke-width="0.75" stroke-miterlimit="10" x1="-48.2558" y1="-11.4118" x2="-34.4684" y2="-11.4118"/>
	</g>
</symbol>
<symbol  id="micro_USB_2" viewBox="-4.4 -10.55 8.8 21.1">
	<g>
		<path fill="#050505" stroke="#050505" stroke-miterlimit="10" d="M0.5-10.05h-2.4c-1.1,0-2,0.9-2,2v16.1c0,1.1,0.9,2,2,2h2.4
			c1.9,0,3.4-1.5,3.4-3.4v-13.3C3.9-8.55,2.4-10.05,0.5-10.05z"/>
		<path fill="#050505" stroke="#808080" stroke-miterlimit="10" d="M-0.2-9.45h-1c-1.1,0-2,0.9-2,2v14.9c0,1.1,0.9,2,2,2h1
			c1.9,0,3.4-1.5,3.4-3.4v-12.1C3.3-7.95,1.7-9.45-0.2-9.45z"/>
		<g>
			<g>
				<rect x="-0.5" y="4.25" fill="#4B4B4B" width="0.4" height="0.7"/>
				<rect x="-0.5" y="1.25" fill="#4B4B4B" width="0.4" height="0.7"/>
				<rect x="-0.5" y="-1.95" fill="#4B4B4B" width="0.4" height="0.7"/>
				<rect x="-0.5" y="-5.15" fill="#4B4B4B" width="0.4" height="0.7"/>
			</g>
			<rect x="-0.1" y="-6.45" fill="#5A5A5A" width="0.8" height="12.9"/>
		</g>
		<path fill="#5A5A5A" d="M2.5-4.95H2c0,0-0.1,0-0.1,0.1v1.8c0,0,0,0.1,0.1,0.1h0.5c0,0,0.1,0,0.1-0.1L2.5-4.95
			C2.6-4.95,2.6-4.95,2.5-4.95z"/>
		<path fill="#5A5A5A" d="M2.5,3.65H2c0,0-0.1,0-0.1,0.1v1.8c0,0,0,0.1,0.1,0.1h0.5c0,0,0.1,0,0.1-0.1L2.5,3.65
			C2.6,3.65,2.6,3.65,2.5,3.65z"/>
		<rect x="-4" y="-6.15" fill="#050505" width="1.6" height="12.4"/>
		
			<linearGradient id="SVGID_00000124162887731800417310000010010945480685815210_" gradientUnits="userSpaceOnUse" x1="-21.6558" y1="-42.45" x2="-20.3134" y2="-42.45" gradientTransform="matrix(1 0 0 1 17.7 42.45)">
			<stop  offset="0" style="stop-color:#646464"/>
			<stop  offset="0.155" style="stop-color:#767676"/>
			<stop  offset="0.3423" style="stop-color:#848484"/>
			<stop  offset="0.5" style="stop-color:#898989"/>
			<stop  offset="0.6843" style="stop-color:#7F7F7F"/>
			<stop  offset="0.9964" style="stop-color:#646464"/>
			<stop  offset="1" style="stop-color:#646464"/>
		</linearGradient>
		<path fill="url(#SVGID_00000124162887731800417310000010010945480685815210_)" d="M-3.1-5.95h-0.4c-0.3,0-0.5,0.2-0.5,0.5v11
			c0,0.2,0.2,0.4,0.4,0.4h0.4c0.2,0,0.4-0.2,0.4-0.4v-11C-2.6-5.75-2.8-5.95-3.1-5.95z"/>
		
			<linearGradient id="SVGID_00000051377574864828749920000017107805961816702655_" gradientUnits="userSpaceOnUse" x1="-15.1099" y1="-42.65" x2="-13.7675" y2="-42.65" gradientTransform="matrix(1 0 0 1 17.7 42.45)">
			<stop  offset="0" style="stop-color:#646464"/>
			<stop  offset="0.155" style="stop-color:#767676"/>
			<stop  offset="0.3423" style="stop-color:#848484"/>
			<stop  offset="0.5" style="stop-color:#898989"/>
			<stop  offset="0.6843" style="stop-color:#7F7F7F"/>
			<stop  offset="0.9964" style="stop-color:#646464"/>
			<stop  offset="1" style="stop-color:#646464"/>
		</linearGradient>
		<path fill="url(#SVGID_00000051377574864828749920000017107805961816702655_)" d="M3.5-7.05H3c-0.2,0-0.4,0.2-0.4,0.4v12.9
			c0,0.2,0.2,0.4,0.4,0.4h0.4c0.2,0,0.4-0.2,0.4-0.4v-12.9C3.9-6.85,3.7-7.05,3.5-7.05z"/>
	</g>
</symbol>
<symbol  id="usb" viewBox="-7.4 -17.2577 14.8 34.5154">
	<g>
		<g>
			<path fill="#050505" d="M7.4-16.4423v32.7c0,0.5-0.3,0.9-0.8,0.9l-12.9,0.1c-0.5,0-1.1-0.4-1.1-1l0,0v-32.7
				c0-0.5,0.6-0.8,1.1-0.8h13C7.2-17.3423,7.4-16.9423,7.4-16.4423z"/>
			<g>
				<rect x="0.6" y="-9.6423" fill="#4B4B4B" width="1" height="1.4"/>
				<rect x="0.6" y="-3.8423" fill="#4B4B4B" width="1" height="1.4"/>
				<rect x="0.6" y="2.3577" fill="#4B4B4B" width="1" height="1.4"/>
				<rect x="0.6" y="8.5577" fill="#4B4B4B" width="1" height="1.4"/>
			</g>
			<rect x="-4.1" y="-12.5423" fill="#4B4B4B" width="4.7" height="24.9"/>
		</g>
		<path fill="none" stroke="#5A5A5A" stroke-width="0.924" stroke-miterlimit="10" d="M6.6-15.6423v31c0,0.5-0.3,0.8-0.8,0.8
			l-11.5,0.1c-0.5,0-1-0.4-1-0.9l0,0v-31c0-0.5,0.5-0.8,1-0.8H5.9C6.4-16.4423,6.6-16.1423,6.6-15.6423z"/>
	</g>
</symbol>
<g id="Chassis">
	<g id="chassis-parts">
		<path fill="#414141" d="M35,107.5V2H1.1C0.5,2,0,2.7,0,3.6v4v98.3c0,0.9,0.5,1.6,1.1,1.6l0,0H35L35,107.5z"/>
		<path fill="#414141" d="M1167.3,107.6h33.7c0.6,0,1.1-0.7,1.1-1.6l0,0V3.6c0-0.9-0.5-1.6-1.1-1.6l0,0h-33.7V107.6z"/>
		<path id="bg-dark" d="M52.4,107.6h1101.3c0.8,0,1.4-0.3,1.4-0.7l0,0V4.9c0-0.4-0.6-0.7-1.4-0.7l0,0H52.4c-0.8,0-1.4,0.3-1.4,0.7
			l0,0v102C50.9,107.2,51.6,107.6,52.4,107.6z"/>
		<g id="left-side">
			<rect x="33.9" y="4.4" fill="#323232" stroke="#000000" stroke-miterlimit="10" width="26.6" height="96.7"/>
			<g>
				<g>
					<g>
						<g>
							<defs>
								<rect id="SVGID_00000069368102270694787090000014012420230393682068_" x="2.25" y="4.4999" width="31.5" height="97"/>
							</defs>
							<clipPath id="SVGID_00000129166704205365221090000001911727250975791537_">
								<use xlink:href="#SVGID_00000069368102270694787090000014012420230393682068_"  overflow="visible"/>
							</clipPath>
							<g clip-path="url(#SVGID_00000129166704205365221090000001911727250975791537_)">
								<g>
									<g>
										<g>
											<defs>
												<rect id="SVGID_00000036936708416083869440000004481355450136852648_" x="2.25" y="4.4999" width="31.5" height="97"/>
											</defs>
											<clipPath id="SVGID_00000130606855879987905940000014750287398106742198_">
												<use xlink:href="#SVGID_00000036936708416083869440000004481355450136852648_"  overflow="visible"/>
											</clipPath>
											<g clip-path="url(#SVGID_00000130606855879987905940000014750287398106742198_)">
												<g>
													<g>
														<defs>
															
																<rect id="SVGID_00000008119701022929635700000009521297853701741737_" x="2.25" y="4.4999" width="31.5" height="97"/>
														</defs>
														<clipPath id="SVGID_00000116225436326048470040000003142091871108139405_">
															<use xlink:href="#SVGID_00000008119701022929635700000009521297853701741737_"  overflow="visible"/>
														</clipPath>
														<g clip-path="url(#SVGID_00000116225436326048470040000003142091871108139405_)">
															<g>
																<defs>
																	
																		<rect id="SVGID_00000160178310053348261610000017830605963955864217_" x="2.25" y="4.4999" width="31.5" height="97"/>
																</defs>
																<clipPath id="SVGID_00000083791816472186135760000014127638279998648717_">
																	<use xlink:href="#SVGID_00000160178310053348261610000017830605963955864217_"  overflow="visible"/>
																</clipPath>
																<g clip-path="url(#SVGID_00000083791816472186135760000014127638279998648717_)">
																	
																		<use xlink:href="#Latch"  width="31.5" height="97" x="-15.75" y="-48.5" transform="matrix(1 0 0 -1 18 52.9999)" overflow="visible"/>
																</g>
															</g>
														</g>
													</g>
												</g>
											</g>
										</g>
									</g>
								</g>
							</g>
						</g>
					</g>
				</g>
			</g>
			<rect x="49.6" y="10.1" fill="none" stroke="#000000" stroke-width="0.25" stroke-miterlimit="10" width="10.5" height="88"/>
		</g>
		<g id="drive-dividers">
			<g id="drive-divider_5_">
				<rect x="69.1" y="57.6" fill="#141414" width="192" height="4.1"/>
				<g>
					<polygon fill="#414141" points="96.2,59.2 107,59.2 107,57.9 107,57.7 107,56.7 96.2,56.7 96.2,57.7 96.2,57.9 					"/>
					<polygon fill="#414141" points="120.5,59.2 131.4,59.2 131.4,57.9 131.4,57.7 131.4,56.7 127.2,56.7 120.5,56.7 120.5,57.7 
						120.5,57.9 					"/>
					<polygon fill="#414141" points="144.6,59.2 155.5,59.2 155.5,57.9 155.5,57.7 155.5,56.7 144.6,56.7 144.6,57.7 144.6,57.9 
											"/>
					<polygon fill="#414141" points="169.2,59.2 180,59.2 180,57.9 180,57.7 180,56.7 169.2,56.7 169.2,57.7 169.2,57.9 					"/>
					<polygon fill="#414141" points="193.9,59.2 204.8,59.2 204.8,57.9 204.8,57.7 204.8,56.7 193.9,56.7 193.9,57.7 193.9,57.9 
											"/>
					<polygon fill="#414141" points="218.3,59.2 229.2,59.2 229.2,57.9 229.2,57.7 229.2,56.7 218.3,56.7 218.3,57.7 218.3,57.9 
											"/>
					<polygon fill="#414141" points="107,60 96.2,60 96.2,61.2 96.2,61.5 96.2,62.5 107,62.5 107,61.5 107,61.2 					"/>
					<polygon fill="#414141" points="131.4,60 127.2,60 120.5,60 120.5,61.2 120.5,61.5 120.5,62.5 131.4,62.5 131.4,61.5 
						131.4,61.2 					"/>
					<polygon fill="#414141" points="155.5,60 144.6,60 144.6,61.2 144.6,61.5 144.6,62.5 155.5,62.5 155.5,61.5 155.5,61.2 					
						"/>
					<polygon fill="#414141" points="180,60 169.2,60 169.2,61.2 169.2,61.5 169.2,62.5 180,62.5 180,61.5 180,61.2 					"/>
					<polygon fill="#414141" points="204.8,60 193.9,60 193.9,61.2 193.9,61.5 193.9,62.5 204.8,62.5 204.8,61.5 204.8,61.2 					
						"/>
					<polygon fill="#414141" points="229.2,60 218.3,60 218.3,61.2 218.3,61.5 218.3,62.5 229.2,62.5 229.2,61.5 229.2,61.2 					
						"/>
				</g>
			</g>
			<g id="drive-divider_10_">
				<rect x="69.1" y="14.9" fill="#141414" width="192" height="4.1"/>
				<g>
					<polygon fill="#414141" points="107,17.3 96.2,17.3 96.2,18.5 96.2,18.8 96.2,19.8 107,19.8 107,18.8 107,18.5 					"/>
					<polygon fill="#414141" points="131.4,17.3 127.2,17.3 120.5,17.3 120.5,18.5 120.5,18.8 120.5,19.8 131.4,19.8 131.4,18.8 
						131.4,18.5 					"/>
					<polygon fill="#414141" points="155.5,17.3 144.6,17.3 144.6,18.5 144.6,18.8 144.6,19.8 155.5,19.8 155.5,18.8 155.5,18.5 
											"/>
					<polygon fill="#414141" points="180,17.3 169.2,17.3 169.2,18.5 169.2,18.8 169.2,19.8 180,19.8 180,18.8 180,18.5 					"/>
					<polygon fill="#414141" points="204.8,17.3 193.9,17.3 193.9,18.5 193.9,18.8 193.9,19.8 204.8,19.8 204.8,18.8 204.8,18.5 
											"/>
					<polygon fill="#414141" points="229.2,17.3 218.3,17.3 218.3,18.5 218.3,18.8 218.3,19.8 229.2,19.8 229.2,18.8 229.2,18.5 
											"/>
				</g>
			</g>
			<g id="drive-divider_11_">
				<rect x="69.1" y="99.9" fill="#141414" width="192" height="4.1"/>
				<g>
					<polygon fill="#414141" points="107,101.5 96.2,101.5 96.2,100.4 96.2,100 96.2,99.1 107,99.1 107,100 107,100.4 					"/>
					<polygon fill="#414141" points="131.4,101.5 127.2,101.5 120.5,101.5 120.5,100.4 120.5,100 120.5,99.1 131.4,99.1 131.4,100 
						131.4,100.4 					"/>
					<polygon fill="#414141" points="155.5,101.5 144.6,101.5 144.6,100.4 144.6,100 144.6,99.1 155.5,99.1 155.5,100 155.5,100.4 
											"/>
					<polygon fill="#414141" points="180,101.5 169.2,101.5 169.2,100.4 169.2,100 169.2,99.1 180,99.1 180,100 180,100.4 					"/>
					<polygon fill="#414141" points="204.8,101.5 193.9,101.5 193.9,100.4 193.9,100 193.9,99.1 204.8,99.1 204.8,100 204.8,100.4 
											"/>
					<polygon fill="#414141" points="229.2,101.5 218.3,101.5 218.3,100.4 218.3,100 218.3,99.1 229.2,99.1 229.2,100 229.2,100.4 
											"/>
				</g>
			</g>
			<g id="drive-divider_6_">
				<rect x="275.1" y="57.6" fill="#141414" width="192" height="4.1"/>
				<g>
					<polygon fill="#414141" points="302.2,59.2 313,59.2 313,57.9 313,57.7 313,56.7 302.2,56.7 302.2,57.7 302.2,57.9 					"/>
					<polygon fill="#414141" points="326.5,59.2 337.4,59.2 337.4,57.9 337.4,57.7 337.4,56.7 333.2,56.7 326.5,56.7 326.5,57.7 
						326.5,57.9 					"/>
					<polygon fill="#414141" points="350.6,59.2 361.5,59.2 361.5,57.9 361.5,57.7 361.5,56.7 350.6,56.7 350.6,57.7 350.6,57.9 
											"/>
					<polygon fill="#414141" points="375.2,59.2 386,59.2 386,57.9 386,57.7 386,56.7 375.2,56.7 375.2,57.7 375.2,57.9 					"/>
					<polygon fill="#414141" points="399.9,59.2 410.8,59.2 410.8,57.9 410.8,57.7 410.8,56.7 399.9,56.7 399.9,57.7 399.9,57.9 
											"/>
					<polygon fill="#414141" points="424.3,59.2 435.2,59.2 435.2,57.9 435.2,57.7 435.2,56.7 424.3,56.7 424.3,57.7 424.3,57.9 
											"/>
					<polygon fill="#414141" points="313,60 302.2,60 302.2,61.2 302.2,61.5 302.2,62.5 313,62.5 313,61.5 313,61.2 					"/>
					<polygon fill="#414141" points="337.4,60 333.2,60 326.5,60 326.5,61.2 326.5,61.5 326.5,62.5 337.4,62.5 337.4,61.5 
						337.4,61.2 					"/>
					<polygon fill="#414141" points="361.5,60 350.6,60 350.6,61.2 350.6,61.5 350.6,62.5 361.5,62.5 361.5,61.5 361.5,61.2 					
						"/>
					<polygon fill="#414141" points="386,60 375.2,60 375.2,61.2 375.2,61.5 375.2,62.5 386,62.5 386,61.5 386,61.2 					"/>
					<polygon fill="#414141" points="410.8,60 399.9,60 399.9,61.2 399.9,61.5 399.9,62.5 410.8,62.5 410.8,61.5 410.8,61.2 					
						"/>
					<polygon fill="#414141" points="435.2,60 424.3,60 424.3,61.2 424.3,61.5 424.3,62.5 435.2,62.5 435.2,61.5 435.2,61.2 					
						"/>
				</g>
			</g>
			<g id="drive-divider_12_">
				<rect x="275.1" y="14.9" fill="#141414" width="192" height="4.1"/>
				<g>
					<polygon fill="#414141" points="313,17.3 302.2,17.3 302.2,18.5 302.2,18.8 302.2,19.8 313,19.8 313,18.8 313,18.5 					"/>
					<polygon fill="#414141" points="337.4,17.3 333.2,17.3 326.5,17.3 326.5,18.5 326.5,18.8 326.5,19.8 337.4,19.8 337.4,18.8 
						337.4,18.5 					"/>
					<polygon fill="#414141" points="361.5,17.3 350.6,17.3 350.6,18.5 350.6,18.8 350.6,19.8 361.5,19.8 361.5,18.8 361.5,18.5 
											"/>
					<polygon fill="#414141" points="386,17.3 375.2,17.3 375.2,18.5 375.2,18.8 375.2,19.8 386,19.8 386,18.8 386,18.5 					"/>
					<polygon fill="#414141" points="410.8,17.3 399.9,17.3 399.9,18.5 399.9,18.8 399.9,19.8 410.8,19.8 410.8,18.8 410.8,18.5 
											"/>
					<polygon fill="#414141" points="435.2,17.3 424.3,17.3 424.3,18.5 424.3,18.8 424.3,19.8 435.2,19.8 435.2,18.8 435.2,18.5 
											"/>
				</g>
			</g>
			<g id="drive-divider_13_">
				<rect x="275.1" y="99.9" fill="#141414" width="192" height="4.1"/>
				<g>
					<polygon fill="#414141" points="313,101.5 302.2,101.5 302.2,100.4 302.2,100 302.2,99.1 313,99.1 313,100 313,100.4 					"/>
					<polygon fill="#414141" points="337.4,101.5 333.2,101.5 326.5,101.5 326.5,100.4 326.5,100 326.5,99.1 337.4,99.1 337.4,100 
						337.4,100.4 					"/>
					<polygon fill="#414141" points="361.5,101.5 350.6,101.5 350.6,100.4 350.6,100 350.6,99.1 361.5,99.1 361.5,100 361.5,100.4 
											"/>
					<polygon fill="#414141" points="386,101.5 375.2,101.5 375.2,100.4 375.2,100 375.2,99.1 386,99.1 386,100 386,100.4 					"/>
					<polygon fill="#414141" points="410.8,101.5 399.9,101.5 399.9,100.4 399.9,100 399.9,99.1 410.8,99.1 410.8,100 410.8,100.4 
											"/>
					<polygon fill="#414141" points="435.2,101.5 424.3,101.5 424.3,100.4 424.3,100 424.3,99.1 435.2,99.1 435.2,100 435.2,100.4 
											"/>
				</g>
			</g>
			<g id="drive-divider_7_">
				<rect x="483.1" y="57.6" fill="#141414" width="192" height="4.1"/>
				<g>
					<polygon fill="#414141" points="510.2,59.2 521,59.2 521,57.9 521,57.7 521,56.7 510.2,56.7 510.2,57.7 510.2,57.9 					"/>
					<polygon fill="#414141" points="534.5,59.2 545.4,59.2 545.4,57.9 545.4,57.7 545.4,56.7 541.2,56.7 534.5,56.7 534.5,57.7 
						534.5,57.9 					"/>
					<polygon fill="#414141" points="558.6,59.2 569.5,59.2 569.5,57.9 569.5,57.7 569.5,56.7 558.6,56.7 558.6,57.7 558.6,57.9 
											"/>
					<polygon fill="#414141" points="583.2,59.2 594,59.2 594,57.9 594,57.7 594,56.7 583.2,56.7 583.2,57.7 583.2,57.9 					"/>
					<polygon fill="#414141" points="607.9,59.2 618.8,59.2 618.8,57.9 618.8,57.7 618.8,56.7 607.9,56.7 607.9,57.7 607.9,57.9 
											"/>
					<polygon fill="#414141" points="632.3,59.2 643.2,59.2 643.2,57.9 643.2,57.7 643.2,56.7 632.3,56.7 632.3,57.7 632.3,57.9 
											"/>
					<polygon fill="#414141" points="521,60 510.2,60 510.2,61.2 510.2,61.5 510.2,62.5 521,62.5 521,61.5 521,61.2 					"/>
					<polygon fill="#414141" points="545.4,60 541.2,60 534.5,60 534.5,61.2 534.5,61.5 534.5,62.5 545.4,62.5 545.4,61.5 
						545.4,61.2 					"/>
					<polygon fill="#414141" points="569.5,60 558.6,60 558.6,61.2 558.6,61.5 558.6,62.5 569.5,62.5 569.5,61.5 569.5,61.2 					
						"/>
					<polygon fill="#414141" points="594,60 583.2,60 583.2,61.2 583.2,61.5 583.2,62.5 594,62.5 594,61.5 594,61.2 					"/>
					<polygon fill="#414141" points="618.8,60 607.9,60 607.9,61.2 607.9,61.5 607.9,62.5 618.8,62.5 618.8,61.5 618.8,61.2 					
						"/>
					<polygon fill="#414141" points="643.2,60 632.3,60 632.3,61.2 632.3,61.5 632.3,62.5 643.2,62.5 643.2,61.5 643.2,61.2 					
						"/>
				</g>
			</g>
			<g id="drive-divider_14_">
				<rect x="483.1" y="14.9" fill="#141414" width="192" height="4.1"/>
				<g>
					<polygon fill="#414141" points="521,17.3 510.2,17.3 510.2,18.5 510.2,18.8 510.2,19.8 521,19.8 521,18.8 521,18.5 					"/>
					<polygon fill="#414141" points="545.4,17.3 541.2,17.3 534.5,17.3 534.5,18.5 534.5,18.8 534.5,19.8 545.4,19.8 545.4,18.8 
						545.4,18.5 					"/>
					<polygon fill="#414141" points="569.5,17.3 558.6,17.3 558.6,18.5 558.6,18.8 558.6,19.8 569.5,19.8 569.5,18.8 569.5,18.5 
											"/>
					<polygon fill="#414141" points="594,17.3 583.2,17.3 583.2,18.5 583.2,18.8 583.2,19.8 594,19.8 594,18.8 594,18.5 					"/>
					<polygon fill="#414141" points="618.8,17.3 607.9,17.3 607.9,18.5 607.9,18.8 607.9,19.8 618.8,19.8 618.8,18.8 618.8,18.5 
											"/>
					<polygon fill="#414141" points="643.2,17.3 632.3,17.3 632.3,18.5 632.3,18.8 632.3,19.8 643.2,19.8 643.2,18.8 643.2,18.5 
											"/>
				</g>
			</g>
			<g id="drive-divider_15_">
				<rect x="483.1" y="99.9" fill="#141414" width="192" height="4.1"/>
				<g>
					<polygon fill="#414141" points="521,101.5 510.2,101.5 510.2,100.4 510.2,100 510.2,99.1 521,99.1 521,100 521,100.4 					"/>
					<polygon fill="#414141" points="545.4,101.5 541.2,101.5 534.5,101.5 534.5,100.4 534.5,100 534.5,99.1 545.4,99.1 545.4,100 
						545.4,100.4 					"/>
					<polygon fill="#414141" points="569.5,101.5 558.6,101.5 558.6,100.4 558.6,100 558.6,99.1 569.5,99.1 569.5,100 569.5,100.4 
											"/>
					<polygon fill="#414141" points="594,101.5 583.2,101.5 583.2,100.4 583.2,100 583.2,99.1 594,99.1 594,100 594,100.4 					"/>
					<polygon fill="#414141" points="618.8,101.5 607.9,101.5 607.9,100.4 607.9,100 607.9,99.1 618.8,99.1 618.8,100 618.8,100.4 
											"/>
					<polygon fill="#414141" points="643.2,101.5 632.3,101.5 632.3,100.4 632.3,100 632.3,99.1 643.2,99.1 643.2,100 643.2,100.4 
											"/>
				</g>
			</g>
			<g id="drive-divider_8_">
				<rect x="689.1" y="57.6" fill="#141414" width="192" height="4.1"/>
				<g>
					<polygon fill="#414141" points="716.2,59.2 727,59.2 727,57.9 727,57.7 727,56.7 716.2,56.7 716.2,57.7 716.2,57.9 					"/>
					<polygon fill="#414141" points="740.5,59.2 751.4,59.2 751.4,57.9 751.4,57.7 751.4,56.7 747.2,56.7 740.5,56.7 740.5,57.7 
						740.5,57.9 					"/>
					<polygon fill="#414141" points="764.6,59.2 775.5,59.2 775.5,57.9 775.5,57.7 775.5,56.7 764.6,56.7 764.6,57.7 764.6,57.9 
											"/>
					<polygon fill="#414141" points="789.2,59.2 800,59.2 800,57.9 800,57.7 800,56.7 789.2,56.7 789.2,57.7 789.2,57.9 					"/>
					<polygon fill="#414141" points="813.9,59.2 824.8,59.2 824.8,57.9 824.8,57.7 824.8,56.7 813.9,56.7 813.9,57.7 813.9,57.9 
											"/>
					<polygon fill="#414141" points="838.3,59.2 849.2,59.2 849.2,57.9 849.2,57.7 849.2,56.7 838.3,56.7 838.3,57.7 838.3,57.9 
											"/>
					<polygon fill="#414141" points="727,60 716.2,60 716.2,61.2 716.2,61.5 716.2,62.5 727,62.5 727,61.5 727,61.2 					"/>
					<polygon fill="#414141" points="751.4,60 747.2,60 740.5,60 740.5,61.2 740.5,61.5 740.5,62.5 751.4,62.5 751.4,61.5 
						751.4,61.2 					"/>
					<polygon fill="#414141" points="775.5,60 764.6,60 764.6,61.2 764.6,61.5 764.6,62.5 775.5,62.5 775.5,61.5 775.5,61.2 					
						"/>
					<polygon fill="#414141" points="800,60 789.2,60 789.2,61.2 789.2,61.5 789.2,62.5 800,62.5 800,61.5 800,61.2 					"/>
					<polygon fill="#414141" points="824.8,60 813.9,60 813.9,61.2 813.9,61.5 813.9,62.5 824.8,62.5 824.8,61.5 824.8,61.2 					
						"/>
					<polygon fill="#414141" points="849.2,60 838.3,60 838.3,61.2 838.3,61.5 838.3,62.5 849.2,62.5 849.2,61.5 849.2,61.2 					
						"/>
				</g>
			</g>
			<g id="drive-divider_16_">
				<rect x="689.1" y="14.9" fill="#141414" width="192" height="4.1"/>
				<g>
					<polygon fill="#414141" points="727,17.3 716.2,17.3 716.2,18.5 716.2,18.8 716.2,19.8 727,19.8 727,18.8 727,18.5 					"/>
					<polygon fill="#414141" points="751.4,17.3 747.2,17.3 740.5,17.3 740.5,18.5 740.5,18.8 740.5,19.8 751.4,19.8 751.4,18.8 
						751.4,18.5 					"/>
					<polygon fill="#414141" points="775.5,17.3 764.6,17.3 764.6,18.5 764.6,18.8 764.6,19.8 775.5,19.8 775.5,18.8 775.5,18.5 
											"/>
					<polygon fill="#414141" points="800,17.3 789.2,17.3 789.2,18.5 789.2,18.8 789.2,19.8 800,19.8 800,18.8 800,18.5 					"/>
					<polygon fill="#414141" points="824.8,17.3 813.9,17.3 813.9,18.5 813.9,18.8 813.9,19.8 824.8,19.8 824.8,18.8 824.8,18.5 
											"/>
					<polygon fill="#414141" points="849.2,17.3 838.3,17.3 838.3,18.5 838.3,18.8 838.3,19.8 849.2,19.8 849.2,18.8 849.2,18.5 
											"/>
				</g>
			</g>
			<g id="drive-divider_17_">
				<rect x="689.1" y="99.9" fill="#141414" width="192" height="4.1"/>
				<g>
					<polygon fill="#414141" points="727,101.5 716.2,101.5 716.2,100.4 716.2,100 716.2,99.1 727,99.1 727,100 727,100.4 					"/>
					<polygon fill="#414141" points="751.4,101.5 747.2,101.5 740.5,101.5 740.5,100.4 740.5,100 740.5,99.1 751.4,99.1 751.4,100 
						751.4,100.4 					"/>
					<polygon fill="#414141" points="775.5,101.5 764.6,101.5 764.6,100.4 764.6,100 764.6,99.1 775.5,99.1 775.5,100 775.5,100.4 
											"/>
					<polygon fill="#414141" points="800,101.5 789.2,101.5 789.2,100.4 789.2,100 789.2,99.1 800,99.1 800,100 800,100.4 					"/>
					<polygon fill="#414141" points="824.8,101.5 813.9,101.5 813.9,100.4 813.9,100 813.9,99.1 824.8,99.1 824.8,100 824.8,100.4 
											"/>
					<polygon fill="#414141" points="849.2,101.5 838.3,101.5 838.3,100.4 838.3,100 838.3,99.1 849.2,99.1 849.2,100 849.2,100.4 
											"/>
				</g>
			</g>
			<g id="drive-divider_9_">
				<rect x="896.1" y="57.6" fill="#141414" width="192" height="4.1"/>
				<g>
					<polygon fill="#414141" points="923.2,59.2 934,59.2 934,57.9 934,57.7 934,56.7 923.2,56.7 923.2,57.7 923.2,57.9 					"/>
					<polygon fill="#414141" points="947.5,59.2 958.4,59.2 958.4,57.9 958.4,57.7 958.4,56.7 954.2,56.7 947.5,56.7 947.5,57.7 
						947.5,57.9 					"/>
					<polygon fill="#414141" points="971.6,59.2 982.5,59.2 982.5,57.9 982.5,57.7 982.5,56.7 971.6,56.7 971.6,57.7 971.6,57.9 
											"/>
					<polygon fill="#414141" points="996.2,59.2 1007,59.2 1007,57.9 1007,57.7 1007,56.7 996.2,56.7 996.2,57.7 996.2,57.9 					
						"/>
					<polygon fill="#414141" points="1020.9,59.2 1031.8,59.2 1031.8,57.9 1031.8,57.7 1031.8,56.7 1020.9,56.7 1020.9,57.7 
						1020.9,57.9 					"/>
					<polygon fill="#414141" points="1045.3,59.2 1056.2,59.2 1056.2,57.9 1056.2,57.7 1056.2,56.7 1045.3,56.7 1045.3,57.7 
						1045.3,57.9 					"/>
					<polygon fill="#414141" points="934,60 923.2,60 923.2,61.2 923.2,61.5 923.2,62.5 934,62.5 934,61.5 934,61.2 					"/>
					<polygon fill="#414141" points="958.4,60 954.2,60 947.5,60 947.5,61.2 947.5,61.5 947.5,62.5 958.4,62.5 958.4,61.5 
						958.4,61.2 					"/>
					<polygon fill="#414141" points="982.5,60 971.6,60 971.6,61.2 971.6,61.5 971.6,62.5 982.5,62.5 982.5,61.5 982.5,61.2 					
						"/>
					<polygon fill="#414141" points="1007,60 996.2,60 996.2,61.2 996.2,61.5 996.2,62.5 1007,62.5 1007,61.5 1007,61.2 					"/>
					<polygon fill="#414141" points="1031.8,60 1020.9,60 1020.9,61.2 1020.9,61.5 1020.9,62.5 1031.8,62.5 1031.8,61.5 
						1031.8,61.2 					"/>
					<polygon fill="#414141" points="1056.2,60 1045.3,60 1045.3,61.2 1045.3,61.5 1045.3,62.5 1056.2,62.5 1056.2,61.5 
						1056.2,61.2 					"/>
				</g>
			</g>
			<g id="drive-divider_19_">
				<rect x="896.1" y="14.9" fill="#141414" width="192" height="4.1"/>
				<g>
					<polygon fill="#414141" points="934,17.3 923.2,17.3 923.2,18.5 923.2,18.8 923.2,19.8 934,19.8 934,18.8 934,18.5 					"/>
					<polygon fill="#414141" points="958.4,17.3 954.2,17.3 947.5,17.3 947.5,18.5 947.5,18.8 947.5,19.8 958.4,19.8 958.4,18.8 
						958.4,18.5 					"/>
					<polygon fill="#414141" points="982.5,17.3 971.6,17.3 971.6,18.5 971.6,18.8 971.6,19.8 982.5,19.8 982.5,18.8 982.5,18.5 
											"/>
					<polygon fill="#414141" points="1007,17.3 996.2,17.3 996.2,18.5 996.2,18.8 996.2,19.8 1007,19.8 1007,18.8 1007,18.5 					
						"/>
					<polygon fill="#414141" points="1031.8,17.3 1020.9,17.3 1020.9,18.5 1020.9,18.8 1020.9,19.8 1031.8,19.8 1031.8,18.8 
						1031.8,18.5 					"/>
					<polygon fill="#414141" points="1056.2,17.3 1045.3,17.3 1045.3,18.5 1045.3,18.8 1045.3,19.8 1056.2,19.8 1056.2,18.8 
						1056.2,18.5 					"/>
				</g>
			</g>
			<g id="drive-divider_18_">
				<rect x="896.1" y="99.9" fill="#141414" width="192" height="4.1"/>
				<g>
					<polygon fill="#414141" points="934,101.5 923.2,101.5 923.2,100.4 923.2,100 923.2,99.1 934,99.1 934,100 934,100.4 					"/>
					<polygon fill="#414141" points="982.5,101.5 971.6,101.5 971.6,100.4 971.6,100 971.6,99.1 982.5,99.1 982.5,100 982.5,100.4 
											"/>
					<polygon fill="#414141" points="958.4,101.5 954.2,101.5 947.5,101.5 947.5,100.4 947.5,100 947.5,99.1 958.4,99.1 958.4,100 
						958.4,100.4 					"/>
					<polygon fill="#414141" points="1007,101.5 996.2,101.5 996.2,100.4 996.2,100 996.2,99.1 1007,99.1 1007,100 1007,100.4 					
						"/>
					<polygon fill="#414141" points="1031.8,101.5 1020.9,101.5 1020.9,100.4 1020.9,100 1020.9,99.1 1031.8,99.1 1031.8,100 
						1031.8,100.4 					"/>
					<polygon fill="#414141" points="1056.2,101.5 1045.3,101.5 1045.3,100.4 1045.3,100 1045.3,99.1 1056.2,99.1 1056.2,100 
						1056.2,100.4 					"/>
				</g>
			</g>
		</g>
		<g id="hdd-divider">
			<g id="drive-divider_1_">
				<g>
					<path fill="#323232" d="M72.4,42.8V32.6h7.2v-14H65v1.8h10.7v10H65v70.1h14.6v-17h-7.2V73.3h7.2V42.9L72.4,42.8L72.4,42.8z
						 M75.3,87.5v10.1h-9V87.5H75.3z M75.5,71.6h-9.3V61.5h9.3V71.6z M66.2,57.5V47.1h9.5v10.4H66.2z"/>
				</g>
				<g>
					<path fill="#939598" d="M66.6,35.8c0-0.5,0.1-1,0.2-1.4s0.2-0.7,0.4-0.9c0.2-0.2,0.4-0.4,0.6-0.5s0.5-0.1,0.8-0.1
						s0.5,0,0.8,0.1c0.2,0.1,0.5,0.3,0.6,0.5c0.2,0.2,0.3,0.5,0.4,0.9s0.2,0.8,0.2,1.4c0,0.5-0.1,1-0.2,1.4s-0.2,0.7-0.4,0.9
						c-0.2,0.2-0.4,0.4-0.6,0.5s-0.5,0.1-0.8,0.1s-0.5,0-0.8-0.1c-0.2-0.1-0.5-0.3-0.6-0.5c-0.2-0.2-0.3-0.5-0.4-0.9
						S66.6,36.3,66.6,35.8z M67.4,35.8c0,0.4,0,0.7,0.1,1s0.1,0.5,0.2,0.7s0.2,0.3,0.4,0.4c0.1,0.1,0.3,0.1,0.5,0.1s0.3,0,0.5-0.1
						c0.1-0.1,0.3-0.2,0.4-0.4s0.2-0.4,0.2-0.7c0.1-0.3,0.1-0.6,0.1-1s0-0.7-0.1-1s-0.1-0.5-0.2-0.7s-0.2-0.3-0.4-0.4
						c-0.1-0.1-0.3-0.1-0.5-0.1s-0.3,0-0.5,0.1c-0.1,0.1-0.3,0.2-0.4,0.4s-0.2,0.4-0.2,0.7C67.4,35.1,67.4,35.4,67.4,35.8z"/>
				</g>
				<polygon fill="#939598" points="70.3,42.3 66.3,40 66.3,44.6 				"/>
				<g>
					<path fill="#939598" d="M68.3,79.5L68.3,79.5l-0.1-4.6h-0.1l-1,1H67l-0.1-0.1v-0.6l1.2-1.2l0.2-0.1h0.6L69,74v5.4l-0.1,0.1
						H68.3z"/>
				</g>
				<polygon fill="#939598" points="70.3,83.3 66.3,81 66.3,85.5 				"/>
			</g>
			<g id="drive-divider">
				<path fill="#323232" d="M286.5,32.6v-14h-24.7v16h7.2v8.2h-7.2v33.4h7.2v7.2h-7.2v17h24.7v-17h-7.2V73.2h7.2V42.8h-7.2V32.6
					H286.5L286.5,32.6z M282.1,87.5v10.1h-5.7h-1.2H273h-1.2h-5.7V87.5h5.7h1.2h2.2h1.2H282.1z M282.4,71.6h-5.9h-1.2h-2.2h-1.2H266
					V61.5h5.9h1.2h2.2h1.2h5.9L282.4,71.6L282.4,71.6z M282.5,47.1v10.4h-6.1h-1.2H273h-1.2h-6.1V47.1h6.1h1.2h2.2h1.2H282.5z
					 M265.8,30.4v-10h16.8v10H265.8z"/>
				<g>
					<path fill="#939598" d="M276.2,38.6h-3.6l-0.1-0.1v-0.6l0.1-0.2l1.6-1.3c0.2-0.2,0.4-0.3,0.5-0.4c0.1-0.1,0.3-0.3,0.3-0.4
						c0.1-0.1,0.2-0.3,0.2-0.4c0-0.1,0.1-0.3,0.1-0.5c0-0.1,0-0.3,0-0.4c0-0.1-0.1-0.2-0.2-0.3s-0.2-0.2-0.3-0.2
						c-0.1-0.1-0.3-0.1-0.5-0.1c-0.4,0-0.6,0.1-0.8,0.3c-0.2,0.2-0.2,0.4-0.2,0.8l-0.1,0.1h-0.6l-0.1-0.1c0-0.3,0-0.5,0.1-0.7
						s0.2-0.4,0.4-0.6s0.3-0.3,0.6-0.4c0.2-0.1,0.5-0.1,0.8-0.1s0.6,0.1,0.8,0.2c0.2,0.1,0.4,0.2,0.5,0.4s0.2,0.3,0.3,0.5
						c0.1,0.2,0.1,0.4,0.1,0.6c0,0.3,0,0.5-0.1,0.7s-0.1,0.4-0.3,0.6c-0.1,0.2-0.2,0.3-0.4,0.5s-0.3,0.3-0.5,0.5l-1.2,1v0.1h2.6
						l0.1,0.1L276.2,38.6L276.2,38.6z"/>
				</g>
				<polygon fill="#939598" points="276.1,42.3 272.2,40 272.2,44.6 				"/>
				<g>
					<path fill="#939598" d="M276.3,77.9c0,0.3,0,0.6-0.1,0.8s-0.2,0.4-0.4,0.6c-0.2,0.2-0.4,0.3-0.6,0.4s-0.5,0.1-0.8,0.1
						s-0.5,0-0.8-0.1s-0.4-0.2-0.6-0.3c-0.2-0.1-0.3-0.3-0.4-0.5s-0.1-0.4-0.1-0.6l0.1-0.1h0.6l0.1,0.1c0,0.1,0,0.2,0.1,0.3
						c0,0.1,0.1,0.2,0.2,0.3c0.1,0.1,0.2,0.2,0.3,0.2c0.1,0.1,0.3,0.1,0.5,0.1c0.4,0,0.7-0.1,0.9-0.3s0.3-0.5,0.3-0.9
						s-0.1-0.6-0.3-0.8s-0.4-0.3-0.8-0.3c-0.1,0-0.2,0-0.3,0c-0.1,0-0.1,0.1-0.2,0.1s-0.1,0.1-0.2,0.1h-0.2l-0.1-0.1v-0.6L275,75
						v-0.1h-2.2l-0.1-0.1v-0.6l0.1-0.1h3.1l0.1,0.1v0.6l-0.1,0.2l-1.2,1.1v0.1c0,0,0,0,0.1,0h0.1c0.2,0,0.3,0,0.5,0.1
						s0.3,0.2,0.5,0.3c0.1,0.1,0.3,0.3,0.3,0.5S276.3,77.6,276.3,77.9z"/>
				</g>
				<polygon fill="#939598" points="276.1,83.3 272.2,81 272.2,85.5 				"/>
			</g>
			<g id="drive-divider_2_">
				<path fill="#323232" d="M492.7,32.6v-14H468v16h7.2v8.2H468v33.4h7.2v7.2H468v17h24.7v-17h-7.2V73.2h7.2V42.8h-7.2V32.6H492.7
					L492.7,32.6z M488.4,87.5v10.1h-5.7h-1.2h-2.2h-1.2h-5.7V87.5h5.7h1.2h2.2h1.2H488.4z M488.6,71.6h-5.9h-1.2h-2.2h-1.2h-5.9
					V61.5h5.9h1.2h2.2h1.2h5.9V71.6L488.6,71.6z M488.8,47.1v10.4h-6.1h-1.2h-2.2h-1.2H472V47.1h6.1h1.2h2.2h1.2H488.8z M472,30.4
					v-10h16.8v10H472z"/>
				<g>
					<path fill="#939598" d="M482.7,38.6H482l-0.1-0.1v-1.4l-0.1-0.1h-2.6l-0.1-0.1v-0.6l0.1-0.2l2.6-3L482,33h0.7l0.1,0.1
						L482.7,38.6L482.7,38.6z M482,34L482,34l-1.9,2.2v0.1h1.8l0.1-0.1V34z"/>
				</g>
				<polygon fill="#939598" points="483.3,42.3 479.4,40 479.4,44.6 				"/>
				<g>
					<path fill="#939598" d="M483.3,77.6c0,0.7-0.2,1.2-0.5,1.6s-0.8,0.5-1.4,0.5c-0.3,0-0.6,0-0.8-0.1s-0.4-0.2-0.6-0.3
						s-0.3-0.3-0.3-0.5c-0.1-0.2-0.1-0.4-0.2-0.7l0.1-0.1h0.6l0.1,0.1c0,0.1,0,0.2,0.1,0.3s0.1,0.2,0.2,0.3c0.1,0.1,0.2,0.1,0.3,0.2
						c0.1,0,0.3,0.1,0.5,0.1c0.4,0,0.7-0.1,0.9-0.3c0.2-0.2,0.3-0.5,0.3-0.9c0-0.2,0-0.3-0.1-0.5c0-0.1-0.1-0.3-0.2-0.4
						s-0.2-0.2-0.3-0.2s-0.3-0.1-0.5-0.1s-0.4,0-0.5,0.1s-0.2,0.1-0.3,0.2c-0.1,0.1-0.2,0.2-0.2,0.3l-0.2,0.1l-0.6-0.1l-0.1-0.1
						l0.2-3l0.1-0.1h3.1l0.1,0.1v0.6l-0.1,0.1h-2.4l-0.1,0.1l-0.1,1.4h0.1c0.1-0.1,0.1-0.2,0.3-0.2c0.1-0.1,0.2-0.1,0.3-0.2
						s0.3-0.1,0.5-0.1c0.3,0,0.6,0.1,0.8,0.2c0.2,0.1,0.4,0.2,0.5,0.4c0.1,0.2,0.2,0.4,0.3,0.6C483.3,77.2,483.3,77.4,483.3,77.6z"
						/>
				</g>
				<polygon fill="#939598" points="483.3,83.3 479.4,81 479.4,85.5 				"/>
			</g>
			<g id="drive-divider_3_">
				<path fill="#323232" d="M699.6,32.6v-14h-24.7v16h7.2v8.2h-7.2v33.4h7.2v7.2h-7.2v17h24.7v-17h-7.2V73.2h7.2V42.8h-7.2V32.6
					H699.6L699.6,32.6z M695.3,87.5v10.1h-5.7h-1.2h-2.2H685h-5.7V87.5h5.7h1.2h2.2h1.2H695.3z M695.5,71.6h-5.9h-1.2h-2.2H685h-5.9
					V61.5h5.9h1.2h2.2h1.2h5.9L695.5,71.6L695.5,71.6z M695.7,47.1v10.4h-6.1h-1.2h-2.2H685h-6.1V47.1h6.1h1.2h2.2h1.2H695.7z
					 M678.9,30.4v-10h16.8v10H678.9z"/>
				<g>
					<path fill="#939598" d="M686.2,35.9c0-0.6,0-1,0.1-1.4s0.2-0.7,0.4-0.9s0.4-0.4,0.7-0.5s0.5-0.1,0.9-0.1c0.5,0,0.9,0.1,1.2,0.3
						s0.5,0.6,0.5,1l-0.1,0.1h-0.6l-0.1-0.1c0-0.2-0.1-0.4-0.3-0.5s-0.4-0.1-0.7-0.1c-0.2,0-0.3,0-0.5,0.1c-0.1,0.1-0.2,0.1-0.3,0.3
						c-0.1,0.1-0.1,0.2-0.2,0.3c0,0.1-0.1,0.3-0.1,0.4c0,0.1,0,0.2,0,0.3s0,0.2,0,0.3h0.1c0.1-0.1,0.2-0.1,0.3-0.2
						c0.1,0,0.2-0.1,0.3-0.1s0.3-0.1,0.5-0.1c0.6,0,1,0.2,1.3,0.5s0.5,0.8,0.5,1.3c0,0.3,0,0.6-0.1,0.8s-0.2,0.4-0.4,0.6
						c-0.2,0.2-0.4,0.3-0.6,0.4c-0.2,0.1-0.5,0.1-0.8,0.1s-0.6,0-0.8-0.1s-0.5-0.2-0.6-0.5c-0.2-0.2-0.3-0.5-0.4-0.9
						S686.2,36.4,686.2,35.9z M689.3,36.8c0-0.2,0-0.3-0.1-0.5c0-0.1-0.1-0.3-0.2-0.4s-0.2-0.2-0.3-0.2c-0.1-0.1-0.3-0.1-0.5-0.1
						c-0.4,0-0.6,0.1-0.8,0.3s-0.3,0.5-0.3,0.8c0,0.2,0,0.4,0.1,0.5s0.1,0.3,0.2,0.4c0.1,0.1,0.2,0.2,0.3,0.2s0.3,0.1,0.4,0.1
						c0.4,0,0.6-0.1,0.8-0.3C689.2,37.5,689.3,37.2,689.3,36.8z"/>
				</g>
				<polygon fill="#939598" points="690.3,42.3 686.3,40 686.3,44.6 				"/>
				<g>
					<path fill="#939598" d="M687.6,80L687.6,80l-0.5,0.1L687,80v-0.6l2-4.1v-0.1h-2.6l-0.1-0.1v-0.6l0.1-0.1h3.4l0.1,0.1v0.6
						L687.6,80z"/>
				</g>
				<polygon fill="#939598" points="690.3,83.3 686.3,81 686.3,85.5 				"/>
			</g>
			<g id="drive-divider_4_">
				<path fill="#323232" d="M906.4,32.6v-14h-24.7v16h7.2v8.2h-7.2v33.4h7.2v7.2h-7.2v17h24.7v-17h-7.2V73.2h7.2V42.8h-7.2V32.6
					H906.4L906.4,32.6z M902,87.5v10.1h-5.7h-1.2h-2.2h-1.2H886V87.5h5.7h1.2h2.2h1.2H902z M902.3,71.6h-5.9h-1.2H893h-1.2h-5.9
					V61.5h5.9h1.2h2.2h1.2h5.9L902.3,71.6L902.3,71.6z M902.4,47.1v10.4h-6.1h-1.2h-2.2h-1.2h-6.1V47.1h6.1h1.2h2.2h1.2H902.4z
					 M885.7,30.4v-10h16.8v10H885.7z"/>
				<g>
					<path fill="#939598" d="M896.9,37.1c0,0.2,0,0.4-0.1,0.6s-0.2,0.4-0.4,0.5c-0.2,0.2-0.4,0.3-0.6,0.4s-0.5,0.1-0.8,0.1
						s-0.6,0-0.8-0.1s-0.4-0.2-0.6-0.4c-0.2-0.2-0.3-0.3-0.4-0.5c-0.1-0.2-0.1-0.4-0.1-0.6c0-0.2,0-0.4,0.1-0.5
						c0.1-0.2,0.1-0.3,0.2-0.4s0.2-0.2,0.3-0.3s0.2-0.1,0.3-0.2v-0.1c-0.1,0-0.1-0.1-0.2-0.1c-0.1-0.1-0.1-0.1-0.2-0.2
						c-0.1-0.1-0.1-0.2-0.2-0.3c0-0.1-0.1-0.3-0.1-0.4c0-0.2,0-0.4,0.1-0.6s0.2-0.3,0.3-0.5c0.1-0.1,0.3-0.3,0.5-0.3
						c0.2-0.1,0.5-0.1,0.8-0.1s0.6,0,0.8,0.1s0.4,0.2,0.5,0.3s0.3,0.3,0.3,0.5c0.1,0.2,0.1,0.4,0.1,0.6c0,0.2,0,0.3-0.1,0.4
						c0,0.1-0.1,0.2-0.2,0.3c-0.1,0.1-0.1,0.2-0.2,0.2c-0.1,0.1-0.1,0.1-0.2,0.1v0.1c0.1,0,0.2,0.1,0.3,0.2c0.1,0.1,0.2,0.2,0.3,0.3
						s0.1,0.2,0.2,0.4C896.9,36.7,896.9,36.9,896.9,37.1z M896.1,37.1c0-0.1,0-0.3-0.1-0.4c0-0.1-0.1-0.2-0.2-0.3
						c-0.1-0.1-0.2-0.2-0.3-0.2c-0.1-0.1-0.3-0.1-0.5-0.1s-0.4,0-0.5,0.1s-0.3,0.1-0.3,0.2c-0.1,0.1-0.2,0.2-0.2,0.3
						s-0.1,0.3-0.1,0.4c0,0.1,0,0.2,0.1,0.4c0,0.1,0.1,0.2,0.2,0.3s0.2,0.2,0.3,0.2c0.1,0.1,0.3,0.1,0.5,0.1s0.4,0,0.5-0.1
						s0.3-0.1,0.3-0.2c0.1-0.1,0.2-0.2,0.2-0.3C896.1,37.3,896.1,37.2,896.1,37.1z M896,34.5c0-0.1,0-0.2,0-0.3s-0.1-0.2-0.2-0.3
						c-0.1-0.1-0.2-0.1-0.3-0.2c-0.1,0-0.3-0.1-0.5-0.1s-0.3,0-0.5,0.1c-0.1,0-0.2,0.1-0.3,0.2c-0.1,0.1-0.1,0.2-0.2,0.3
						c0,0.1,0,0.2,0,0.3c0,0.2,0.1,0.4,0.2,0.6c0.2,0.2,0.4,0.3,0.7,0.3s0.6-0.1,0.7-0.3S896,34.8,896,34.5z"/>
				</g>
				<polygon fill="#939598" points="897.1,42.3 893.2,40 893.2,44.6 				"/>
				<g>
					<path fill="#939598" d="M896.9,76.5c0,0.6,0,1-0.1,1.4s-0.2,0.7-0.4,0.9c-0.2,0.2-0.4,0.4-0.7,0.5s-0.6,0.2-0.9,0.2
						c-0.4,0-0.8-0.1-1.1-0.3c-0.3-0.2-0.5-0.6-0.5-1l0.1-0.1h0.6l0.1,0.1c0,0.2,0.1,0.4,0.3,0.5s0.3,0.1,0.6,0.1
						c0.2,0,0.3,0,0.5-0.1c0.1-0.1,0.2-0.1,0.3-0.3c0.1-0.1,0.1-0.2,0.2-0.4c0-0.1,0.1-0.3,0.1-0.4s0-0.3,0-0.4s0-0.2,0-0.3H896
						l-0.1,0.1l-0.1,0.1c-0.1,0.1-0.2,0.1-0.3,0.1s-0.3,0.1-0.5,0.1c-0.3,0-0.5,0-0.7-0.1s-0.4-0.2-0.6-0.4
						c-0.2-0.2-0.3-0.4-0.4-0.6c-0.1-0.2-0.1-0.5-0.1-0.8s0-0.6,0.1-0.8c0.1-0.2,0.2-0.4,0.4-0.6s0.4-0.3,0.6-0.4
						c0.2-0.1,0.5-0.1,0.7-0.1c0.3,0,0.6,0,0.9,0.1c0.2,0.1,0.5,0.2,0.6,0.4c0.2,0.2,0.3,0.5,0.4,0.8
						C896.9,75.6,896.9,76,896.9,76.5z M893.9,75.6c0,0.4,0.1,0.6,0.3,0.8c0.2,0.2,0.4,0.3,0.8,0.3c0.4,0,0.6-0.1,0.8-0.3
						s0.3-0.5,0.3-0.8c0-0.4-0.1-0.7-0.3-0.9s-0.5-0.3-0.8-0.3s-0.6,0.1-0.8,0.3C894,75,893.9,75.3,893.9,75.6z"/>
				</g>
				<polygon fill="#939598" points="897.1,83.3 893.2,81 893.2,85.5 				"/>
			</g>
		</g>
		<polygon id="vent-holes" fill="#323232" stroke="#000000" stroke-miterlimit="10" points="1071.8,6.1 1071.8,15.3 1062.1,15.3 
			1062.1,6.1 1058.4,6.1 1058.4,15.3 1048.6,15.3 1048.6,6.1 1044.6,6.1 1044.6,15.3 1034.8,15.3 1034.8,6.1 1030.7,6.1 
			1030.7,15.3 1021,15.3 1021,6.1 1017.2,6.1 1017.2,15.3 1007.4,15.3 1007.4,6.1 1003.3,6.1 1003.3,15.3 993.5,15.3 993.5,6.1 
			989.9,6.1 989.9,15.3 980.1,15.3 980.1,6.1 976,6.1 976,15.3 966.3,15.3 966.3,6.1 962.2,6.1 962.2,15.3 952.5,15.3 952.5,6.1 
			948.4,6.1 948.4,15.3 938.7,15.3 938.7,6.1 934.8,6.1 934.8,15.3 925.1,15.3 925.1,6.1 921.2,6.1 921.2,15.3 911.4,15.3 
			911.4,6.1 907.5,6.1 907.5,15.3 897.8,15.3 897.8,6.1 864.2,6.1 864.2,15.3 854.4,15.3 854.4,6.1 850.7,6.1 850.7,15.3 841,15.3 
			841,6.1 836.9,6.1 836.9,15.3 827.1,15.3 827.1,6.1 823.1,6.1 823.1,15.3 813.3,15.3 813.3,6.1 809.5,6.1 809.5,15.3 799.8,15.3 
			799.8,6.1 795.6,6.1 795.6,15.3 785.9,15.3 785.9,6.1 782.2,6.1 782.2,15.3 772.5,15.3 772.5,6.1 768.3,6.1 768.3,15.3 
			758.6,15.3 758.6,6.1 754.6,6.1 754.6,15.3 744.8,15.3 744.8,6.1 740.8,6.1 740.8,15.3 731,15.3 731,6.1 727.1,6.1 727.1,15.3 
			717.4,15.3 717.4,6.1 713.5,6.1 713.5,15.3 703.8,15.3 703.8,6.1 699.9,6.1 699.9,15.3 690.1,15.3 690.1,6.1 657.7,6.1 
			657.7,15.3 648,15.3 648,6.1 644.3,6.1 644.3,15.3 634.5,15.3 634.5,6.1 630.4,6.1 630.4,15.3 620.7,15.3 620.7,6.1 616.6,6.1 
			616.6,15.3 606.9,15.3 606.9,6.1 603.1,6.1 603.1,15.3 593.3,15.3 593.3,6.1 589.2,6.1 589.2,15.3 579.4,15.3 579.4,6.1 
			575.8,6.1 575.8,15.3 566,15.3 566,6.1 561.9,6.1 561.9,15.3 552.2,15.3 552.2,6.1 548.1,6.1 548.1,15.3 538.4,15.3 538.4,6.1 
			534.3,6.1 534.3,15.3 524.6,15.3 524.6,6.1 520.7,6.1 520.7,15.3 511,15.3 511,6.1 507.1,6.1 507.1,15.3 497.3,15.3 497.3,6.1 
			493.4,6.1 493.4,15.3 483.7,15.3 483.7,6.1 451,6.1 451,15.3 441.3,15.3 441.3,6.1 437.5,6.1 437.5,15.3 427.7,15.3 427.7,6.1 
			423.3,6.1 423.3,15.3 413.6,15.3 413.6,6.1 409.8,6.1 409.8,15.3 400.1,15.3 400.1,6.1 396.1,6.1 396.1,15.3 386.4,15.3 
			386.4,6.1 382.3,6.1 382.3,15.3 372.6,15.3 372.6,6.1 368.6,6.1 368.6,15.3 358.9,15.3 358.9,6.1 354.9,6.1 354.9,15.3 
			345.1,15.3 345.1,6.1 341.1,6.1 341.1,15.3 331.4,15.3 331.4,6.1 327.4,6.1 327.4,15.3 317.6,15.3 317.6,6.1 313.6,6.1 
			313.6,15.3 303.9,15.3 303.9,6.1 300.3,6.1 300.3,15.3 290.5,15.3 290.5,6.1 286.4,6.1 286.4,15.3 276.6,15.3 276.6,6.1 
			244.4,6.1 244.4,15.3 234.7,15.3 234.7,6.1 230.9,6.1 230.9,15.3 221.2,15.3 221.2,6.1 217.2,6.1 217.2,15.3 207.5,15.3 
			207.5,6.1 203.4,6.1 203.4,15.3 193.7,15.3 193.7,6.1 189.7,6.1 189.7,15.3 180,15.3 180,6.1 176,6.1 176,15.3 166.2,15.3 
			166.2,6.1 162.2,6.1 162.2,15.3 152.5,15.3 152.5,6.1 148.5,6.1 148.5,15.3 138.7,15.3 138.7,6.1 134.7,6.1 134.7,15.3 125,15.3 
			125,6.1 121.4,6.1 121.4,15.3 111.6,15.3 111.6,6.1 107.5,6.1 107.5,15.3 97.7,15.3 97.7,6.1 65,6.1 65,17.9 1087.5,17.9 
			1087.5,6.1 		"/>
		<g id="right-side">
			<g>
				<g>
					<g>
						<g>
							<defs>
								<rect id="SVGID_00000066516321373642517690000006480897660397841585_" x="1167.5" y="4.2132" width="31.5" height="97"/>
							</defs>
							<clipPath id="SVGID_00000167376087310212394230000006783870159456539804_">
								<use xlink:href="#SVGID_00000066516321373642517690000006480897660397841585_"  overflow="visible"/>
							</clipPath>
							<g clip-path="url(#SVGID_00000167376087310212394230000006783870159456539804_)">
								<g>
									<g>
										<g>
											<defs>
												
													<rect id="SVGID_00000044860521052670919750000010989256077521566366_" x="1167.5" y="4.2132" width="31.5" height="97"/>
											</defs>
											<clipPath id="SVGID_00000114055479716501320660000009869416268661537213_">
												<use xlink:href="#SVGID_00000044860521052670919750000010989256077521566366_"  overflow="visible"/>
											</clipPath>
											<g clip-path="url(#SVGID_00000114055479716501320660000009869416268661537213_)">
												<g>
													<g>
														<defs>
															
																<rect id="SVGID_00000180344543266917537160000010704066383557999258_" x="1167.5" y="4.2132" width="31.5" height="97"/>
														</defs>
														<clipPath id="SVGID_00000061462910585134095540000010083876857084975242_">
															<use xlink:href="#SVGID_00000180344543266917537160000010704066383557999258_"  overflow="visible"/>
														</clipPath>
														<g clip-path="url(#SVGID_00000061462910585134095540000010083876857084975242_)">
															<g>
																<defs>
																	
																		<rect id="SVGID_00000173125140459769449310000002354794917249298862_" x="1167.5" y="4.2132" width="31.5" height="97"/>
																</defs>
																<clipPath id="SVGID_00000012469293195912881750000005724505908389323939_">
																	<use xlink:href="#SVGID_00000173125140459769449310000002354794917249298862_"  overflow="visible"/>
																</clipPath>
																<g clip-path="url(#SVGID_00000012469293195912881750000005724505908389323939_)">
																	
																		<use xlink:href="#Latch"  width="31.5" height="97" x="-15.75" y="-48.5" transform="matrix(1 0 0 -1 1183.25 52.7132)" overflow="visible"/>
																</g>
															</g>
														</g>
													</g>
												</g>
											</g>
										</g>
									</g>
								</g>
							</g>
						</g>
					</g>
				</g>
			</g>
			<path fill="#323232" stroke="#000000" stroke-miterlimit="10" d="M1101,4.7h-12.7l0.1,27.9h7.2v10.2h-7.2v30.4h7.2v10.2h-7.2V101
				h12.6h36.7V4.7H1101L1101,4.7z M1092.4,30.4v-10h8.6v10H1092.4z M1092.5,69.6V47.1h8.5v22.5H1092.5z M1092.8,97.6V87.5h8.2v10.1
				H1092.8z M1116,16.7h-10.1V7.4h10.1V16.7z M1130.4,16.7H1120V7.2h10.4V16.7z"/>
			<rect x="1137.7" y="4.8" fill="#323232" stroke="#000000" stroke-miterlimit="10" width="29.6" height="96.3"/>
		</g>
		<g id="edges">
			<g>
				<rect x="948.6" y="101.4" fill="#232323" width="27.3" height="4.1"/>
				<polygon fill="#232323" points="1125.1,107.6 986,107.6 976,105.5 976,101.5 1135.1,101.4 1135.1,105.5 				"/>
				<polygon fill="#414141" points="1125.1,107.6 986,107.6 986,106.2 976,101.4 1135.1,101.4 1125.1,106.2 				"/>
			</g>
			<g>
				<rect x="2.3" y="104.5" fill="#808080" width="945.2" height="3.1"/>
				<rect x="2.3" y="101.5" fill="#CDCDCD" width="945.2" height="3.1"/>
			</g>
			<g>
				<rect x="1135.8" y="104.5" fill="#808080" width="63.5" height="3.1"/>
				<rect x="1135.8" y="101.5" fill="#CDCDCD" width="63.5" height="3.1"/>
			</g>
			<g>
				<rect x="2.3" y="2.1" fill="#808080" width="1196.9" height="2.1"/>
				<rect x="2.3" fill="#CDCDCD" width="1196.9" height="2.1"/>
			</g>
			<g id="edge">
				<rect x="61.1" y="6.5" fill="#808080" width="1.3" height="94"/>
				<rect x="62.4" y="6.5" fill="#CDCDCD" width="1.3" height="94"/>
			</g>
		</g>
	</g>
	<g id="ports-leds-btns">
		<g id="info-icon">
			<ellipse fill="#666666" cx="54.7" cy="18.7" rx="1.4" ry="0.9"/>
			<path fill="#666666" d="M56,24.6c-0.6,0.5-2.7,1.2-3.4-0.4c-0.5-1.1,0.1-2.3,0.4-3c0.5-0.8,3.3-1.5,1.5,1.7c-0.6,1,1,2.1,1.9,0.2
				C56.6,22.5,56.9,23.8,56,24.6z"/>
		</g>
		<path id="USB-icon" fill-rule="evenodd" clip-rule="evenodd" fill="#939598" d="M1162.9,51.2L1162.9,51.2c0,0.4,0.3,0.7,0.7,0.7
			l0,0c0.4,0,0.7-0.3,0.7-0.7c0-0.3-0.2-0.6-0.5-0.7v-1.6l0,0c0-0.1,0.1-0.2,0.2-0.3l0,0c0.1-0.1,0.2-0.2,0.3-0.3
			c0.2-0.2,0.4-0.4,0.6-0.6c0-0.1,0.1-0.2,0.1-0.3s0.1-0.2,0.1-0.4l0,0v-0.3h0.3v-1h-1v1h0.3V47l0,0c0,0.1,0,0.2,0,0.2
			c0,0.1-0.1,0.1-0.1,0.2c-0.1,0.2-0.3,0.4-0.5,0.5c-0.1,0.1-0.2,0.1-0.2,0.2v-3h0.3l-0.5-1l-0.5,1h0.3v4.3
			c-0.1-0.1-0.2-0.1-0.2-0.2c-0.2-0.2-0.4-0.3-0.5-0.5l0,0c0-0.1-0.1-0.1-0.1-0.2s0-0.2,0-0.2l0,0v-0.4c0.2-0.1,0.3-0.2,0.3-0.4
			c0-0.3-0.2-0.5-0.5-0.5l0,0c-0.3,0-0.5,0.2-0.5,0.5c0,0.2,0.1,0.3,0.3,0.4v0.4l0,0c0,0.1,0,0.3,0.1,0.4c0,0.1,0.1,0.2,0.1,0.3l0,0
			c0.1,0.3,0.4,0.5,0.6,0.6c0.1,0.1,0.2,0.2,0.3,0.3l0,0l0,0l0,0c0.1,0.1,0.2,0.2,0.2,0.3l0,0v0.4
			C1163.1,50.6,1162.9,50.9,1162.9,51.2 M1161.9,45.9v0.3h0.3v0.3h0.3v-0.3h0.3v-0.3h-0.3v-0.3h-0.3v0.3H1161.9z"/>
		<g id="wifi-icon">
			<g>
				<path id="XMLID_9086_" fill="#666666" d="M51.1,85.3c-0.1,0.1-0.1,0.4,0,0.5s0.4,0.1,0.5,0c0.8-0.8,2-1.3,3.2-1.3
					s2.3,0.5,3.2,1.3c0.1,0.1,0.4,0.1,0.5,0s0.1-0.4,0-0.5c-1-1-2.3-1.5-3.7-1.5S52.1,84.4,51.1,85.3"/>
				<path id="XMLID_9088_" fill="#666666" d="M52.1,86.7c-0.1,0.1-0.1,0.4,0,0.5s0.4,0.1,0.5,0c0.6-0.6,1.4-0.9,2.2-0.9
					s1.6,0.3,2.2,0.9c0.1,0.1,0.4,0.1,0.5,0s0.1-0.4,0-0.5c-0.7-0.7-1.7-1.1-2.7-1.1C53.7,85.6,52.8,86,52.1,86.7"/>
				<path id="XMLID_9090_" fill="#666666" d="M53.2,88.2c-0.1,0.1-0.1,0.4,0,0.5s0.4,0.1,0.5,0c0.3-0.3,0.7-0.4,1.1-0.4
					c0.4,0,0.8,0.2,1.1,0.4c0.1,0.1,0.4,0.1,0.5,0s0.1-0.4,0-0.5c-0.4-0.4-1-0.6-1.6-0.6C54.2,87.5,53.6,87.8,53.2,88.2"/>
			</g>
		</g>
		<g id="display-port-icon">
			<g>
				<path fill="#939598" d="M1117,24.4c-0.1,0-1.9-0.3-3-0.3c-1.2,0-3,0.3-3.1,0.3h-0.2v1.7v0.6v1.7h0.2c0.1,0,1.9,0.3,3.1,0.3
					s3-0.3,3-0.3h0.2v-1.8v-0.4v-1.8L1117,24.4z M1116.8,28c-0.5,0.1-1.9,0.3-2.8,0.3s-2.3-0.2-2.8-0.3v-1.5v-1.1v-0.5
					c0.5-0.1,1.9-0.3,2.8-0.3s2.3,0.2,2.8,0.3v0.7v0.8V28z"/>
				<rect x="1118.4" y="24.1" fill="#939598" width="0.5" height="4.9"/>
				<rect x="1109" y="24.1" fill="#939598" width="0.5" height="4.9"/>
			</g>
		</g>
		<g id="video-port_1_">
			<g>
				<path fill="#939598" d="M1117.2,24.2c-0.1,0-1.9-0.3-3-0.3c-1.2,0-3,0.3-3.1,0.3h-0.2v1.7v0.6v1.7h0.2c0.1,0,1.9,0.3,3.1,0.3
					s3-0.3,3-0.3h0.2v-1.8V26v-1.8H1117.2z M1117,27.8c-0.5,0.1-1.9,0.3-2.8,0.3s-2.3-0.2-2.8-0.3v-1.5v-1.1v-0.5
					c0.5-0.1,1.9-0.3,2.8-0.3s2.3,0.2,2.8,0.3v0.7v0.8V27.8z"/>
				<rect x="1118.6" y="23.9" fill="#939598" width="0.5" height="4.9"/>
				<rect x="1109.2" y="23.9" fill="#939598" width="0.5" height="4.9"/>
			</g>
		</g>
		<g id="maintenance-port_1_">
			<path fill="#939598" d="M1164.5,81.5l-0.7-0.7l0,0l-0.6-0.6c0.2-0.3,0.1-0.7-0.1-1c-0.2-0.2-0.6-0.3-1-0.1l0.5,0.5v0.1l-0.4,0.4
				h-0.1l-0.5-0.5c-0.1,0.3-0.1,0.7,0.2,0.9c0.3,0.3,0.7,0.3,1,0.1l0.1,0.1l0,0l1.2,1.2c-0.2,0.3-0.1,0.7,0.1,1
				c0.2,0.2,0.6,0.3,1,0.1l-0.5-0.5v-0.1l0.4-0.4h0.1l0.5,0.5c0.1-0.3,0.1-0.7-0.2-0.9C1165.2,81.4,1164.8,81.3,1164.5,81.5z"/>
		</g>
		<g id="lightning-LED">
			<g>
				<g id="XMLID_6_">
					<path id="XMLID_7_" fill="#414141" d="M43.6,53.6h-0.9l0.5-1.6c0,0,0-0.1-0.1,0l-1.8,2.1h0.9l-0.6,1.6c0,0,0,0.1,0.1,0
						L43.6,53.6z"/>
				</g>
				<rect x="39.7" y="51.1" fill="none" stroke="#414141" stroke-width="0.5" stroke-miterlimit="10" width="5.6" height="5.6"/>
			</g>
		</g>
		<g id="box-LED">
			<g>
				<path fill="#414141" d="M40.6,65.5l1.9-1.3l1.9,1.3v1.7l-1.9,1.2l-1.9-1.2C40.6,67,40.6,65.5,40.6,65.5z"/>
				<polyline fill="none" stroke="#414141" stroke-width="0.5" stroke-miterlimit="10" points="40.2,67.5 42.4,69 44.7,67.6 				"/>
			</g>
		</g>
		<path id="temp-LED" fill="#414141" d="M43.2,41.3v-3.6c0-0.4-0.3-0.7-0.7-0.7s-0.7,0.3-0.7,0.7v3.6c-0.7,0.3-1.1,0.9-1.1,1.7
			c0,1,0.8,1.8,1.8,1.8s1.8-0.8,1.8-1.8C44.3,42.2,43.8,41.5,43.2,41.3z"/>
		<g id="card-LED">
			<path id="XMLID_13312_" fill="#414141" d="M44.9,81.5h-3.4v-0.7l-0.1-0.1h-1.1v-1.2h0.6v-0.2h-0.6v-2h5.4v2.9
				c0,0.3-0.2,0.5-0.5,0.5H45l-0.1,0.1V81.5L44.9,81.5z M41.9,81.1h2.6v-0.5h0.1c0,0,0.1,0,0.1-0.1v-0.1h0.5c0.1,0,0.1,0,0.1-0.1
				v-2.5h-4.6V79h0.6v1h-0.6v0.4h1v0.1c0,0,0,0.1,0.1,0.1h0.1L41.9,81.1L41.9,81.1z"/>
			<polygon id="XMLID_13315_" fill="#414141" points="39.3,76.9 39.3,77.5 39.7,77.5 39.7,79.1 39.3,79.1 39.3,79.7 39.7,79.7 
				39.7,82.5 40.1,82.5 40.1,76.9 			"/>
		</g>
		<path id="storage-LED" fill="#414141" d="M39.9,25.5v4.9c0,0.6,1.1,1.1,2.6,1.2h0.1c1.5,0,2.6-0.5,2.6-1v-4.9
			c0-0.6-1.1-1.1-2.6-1.2h-0.1C41,24.4,39.9,25,39.9,25.5z M44.8,30.5c0,0.2-0.8,0.6-2.2,0.6h-0.1c-1.4-0.1-2.1-0.5-2.2-0.7v-4.1
			c0.5,0.3,1.3,0.5,2.2,0.5h0.1c0.7,0,1.7-0.1,2.2-0.4V30.5z M42.6,24.9c1.4,0.1,2.2,0.6,2.2,0.8v0.2c-0.2,0.2-1.1,0.6-2.2,0.5
			c-1.1,0-2-0.4-2.3-0.6v-0.2C40.4,25.4,41.1,24.9,42.6,24.9L42.6,24.9z"/>
		<g>
			
				<radialGradient id="SVGID_00000054259499103803689990000006141976023668716725_" cx="54.3604" cy="-1296.8002" r="7.4766" gradientTransform="matrix(1 0 0 -2.0672 0 -2627.0547)" gradientUnits="userSpaceOnUse">
				<stop  offset="0" style="stop-color:#7DD7FF"/>
				<stop  offset="1" style="stop-color:#4AAAD9"/>
			</radialGradient>
			<rect x="51.6" y="32.6" fill="url(#SVGID_00000054259499103803689990000006141976023668716725_)" width="5.6" height="42.1708"/>
		</g>
		<g id="power-LED">
			<g id="power-on">
				<path fill="#28E500" d="M1155.8,13.7c1.9,1.2,2.4,3.7,1.1,5.5c-1.2,1.8-3.7,2.3-5.6,1.1c-1.9-1.2-2.4-3.7-1.1-5.5
					c0.3-0.4,0.7-0.8,1.1-1.1l0,0l-0.7-0.7c-2.3,1.6-2.8,4.7-1.1,7c1.6,2.2,4.8,2.7,7.1,1.1c2.3-1.6,2.8-4.7,1.1-7
					c-0.3-0.4-0.7-0.8-1.1-1.1l0,0L1155.8,13.7z"/>
				<rect x="1153.1" y="10.9" fill="#28E500" width="1" height="5.3"/>
			</g>
			<g id="power-off" display="none">
				<path display="inline" fill="#666666" d="M1155.8,13.7c1.9,1.2,2.4,3.7,1.1,5.5c-1.2,1.8-3.7,2.3-5.6,1.1
					c-1.9-1.2-2.4-3.7-1.1-5.5c0.3-0.4,0.7-0.8,1.1-1.1l0,0l-0.7-0.7c-2.3,1.6-2.8,4.7-1.1,7c1.6,2.2,4.8,2.7,7.1,1.1s2.8-4.7,1.1-7
					c-0.3-0.4-0.7-0.8-1.1-1.1l0,0L1155.8,13.7z"/>
				<rect x="1153.1" y="10.9" display="inline" fill="#666666" width="1" height="5.3"/>
			</g>
			<path fill="none" stroke="#000000" stroke-width="0.75" stroke-miterlimit="10" d="M1161.2,26.5h-15.3c-1.1,0-2-0.9-2-2V9.3
				c0-1.1,0.9-2,2-2h15.3c1.1,0,2,0.9,2,2v15.2C1163.2,25.6,1162.3,26.5,1161.2,26.5z"/>
		</g>
		<g id="video-port">
			<path fill="#0F0F0F" d="M1104.5,40.6v34.3c0,2,1.9,3.5,4.2,3.1l11.1-1.6c2.3-0.3,4.2-2.3,4.2-4.3V43.4c0-2-1.9-4-4.2-4.3
				l-11.1-1.6C1106.4,37.2,1104.5,38.6,1104.5,40.6z"/>
			<path fill="#414141" d="M1107,42.2v31c0,1.5,1.2,2.5,2.7,2.3l9.2-1.5c1.5-0.3,2.7-1.7,2.7-3.2v-26c0-1.5-1.1-2.9-2.7-3.2
				l-9.2-1.5C1108.1,39.7,1107,40.7,1107,42.2z"/>
			<g>
				<path fill="#0A0A0A" d="M1109.2,47.4c0-0.8,0.6-1.4,1.4-1.4s1.4,0.6,1.4,1.4s-0.6,1.4-1.4,1.4
					C1109.9,48.9,1109.2,48.2,1109.2,47.4z"/>
				<path fill="#0A0A0A" d="M1109.2,57.7c0-0.8,0.6-1.4,1.4-1.4s1.4,0.6,1.4,1.4s-0.6,1.4-1.4,1.4
					C1109.8,59.1,1109.2,58.5,1109.2,57.7z"/>
				<path fill="#0A0A0A" d="M1109.2,67.9c0-0.8,0.6-1.4,1.4-1.4s1.4,0.6,1.4,1.4s-0.6,1.4-1.4,1.4
					C1109.8,69.3,1109.2,68.7,1109.2,67.9z"/>
				<path fill="#0A0A0A" d="M1115.8,70.5c0,0.8-0.6,1.4-1.4,1.4s-1.4-0.6-1.4-1.4s0.6-1.4,1.4-1.4
					C1115.1,69,1115.8,69.7,1115.8,70.5z"/>
				<path fill="#0A0A0A" d="M1119.6,67.9c0,0.8-0.6,1.4-1.4,1.4s-1.4-0.6-1.4-1.4s0.6-1.4,1.4-1.4S1119.6,67.1,1119.6,67.9z"/>
				<path fill="#0A0A0A" d="M1115.8,65.3c0,0.8-0.6,1.4-1.4,1.4s-1.4-0.6-1.4-1.4s0.6-1.4,1.4-1.4
					C1115.1,63.9,1115.8,64.5,1115.8,65.3z"/>
				<path fill="#0A0A0A" d="M1119.6,62.8c0,0.8-0.6,1.4-1.4,1.4s-1.4-0.6-1.4-1.4s0.6-1.4,1.4-1.4C1119,61.4,1119.6,62,1119.6,62.8z
					"/>
				<path fill="#0A0A0A" d="M1112.1,62.8c0,0.8-0.6,1.4-1.4,1.4s-1.4-0.6-1.4-1.4s0.6-1.4,1.4-1.4
					C1111.5,61.4,1112.1,62,1112.1,62.8z"/>
				<path fill="#0A0A0A" d="M1119.6,57.7c0,0.8-0.6,1.4-1.4,1.4s-1.4-0.6-1.4-1.4s0.6-1.4,1.4-1.4S1119.6,56.9,1119.6,57.7z"/>
				<path fill="#0A0A0A" d="M1115.8,55.1c0,0.8-0.6,1.4-1.4,1.4s-1.4-0.6-1.4-1.4s0.6-1.4,1.4-1.4
					C1115.1,53.7,1115.8,54.3,1115.8,55.1z"/>
				<path fill="#0A0A0A" d="M1115.8,49.6c0,0.8-0.6,1.4-1.4,1.4s-1.4-0.6-1.4-1.4s0.6-1.4,1.4-1.4
					C1115.1,48.2,1115.8,48.8,1115.8,49.6z"/>
				<path fill="#0A0A0A" d="M1115.8,60.1c0,0.8-0.6,1.4-1.4,1.4s-1.4-0.6-1.4-1.4s0.6-1.4,1.4-1.4
					C1115.1,58.7,1115.8,59.3,1115.8,60.1z"/>
				<path fill="#0A0A0A" d="M1119.6,52.5c0,0.8-0.6,1.4-1.4,1.4s-1.4-0.6-1.4-1.4s0.6-1.4,1.4-1.4S1119.6,51.7,1119.6,52.5z"/>
				<path fill="#0A0A0A" d="M1112.1,52.5c0,0.8-0.6,1.4-1.4,1.4s-1.4-0.6-1.4-1.4s0.6-1.4,1.4-1.4S1112.1,51.7,1112.1,52.5z"/>
				<path fill="#0A0A0A" d="M1119.6,47.4c0,0.8-0.6,1.4-1.4,1.4s-1.4-0.6-1.4-1.4s0.6-1.4,1.4-1.4S1119.6,46.6,1119.6,47.4z"/>
				<circle fill="#0A0A0A" cx="1114.3" cy="44.9" r="1.4"/>
			</g>
			<path fill="#878787" d="M1105.9,41.7v31.9c0,1.9,1.7,3.3,3.7,3l9.4-1.5c2-0.3,3.5-2.2,3.5-4.1V44.4c0-1.9-1.5-3.8-3.4-4.1
				l-9.5-1.5C1107.6,38.4,1105.9,39.8,1105.9,41.7z M1109.8,39.8l9,1.6c1.5,0.3,2.7,1.7,2.7,3.2v26.1c0,1.5-1.1,3-2.6,3.2l-9.1,1.6
				c-1.5,0.3-2.8-0.8-2.8-2.3V42.1C1106.9,40.6,1108.3,39.6,1109.8,39.8z"/>
		</g>
		<g>
			<g>
				<g>
					<g>
						<defs>
							
								<rect id="SVGID_00000181057706112455698890000008398146236836384391_" x="1144.3876" y="30.4962" width="14.8" height="34.5"/>
						</defs>
						<clipPath id="SVGID_00000062877268444894742590000012641367053102793886_">
							<use xlink:href="#SVGID_00000181057706112455698890000008398146236836384391_"  overflow="visible"/>
						</clipPath>
						<g clip-path="url(#SVGID_00000062877268444894742590000012641367053102793886_)">
							<g>
								<g>
									<g>
										<defs>
											
												<rect id="SVGID_00000075125556408582445200000005962055792070866575_" x="1144.3876" y="30.4808" width="14.8" height="34.5154"/>
										</defs>
										<clipPath id="SVGID_00000183216435422938454170000002236215357038747805_">
											<use xlink:href="#SVGID_00000075125556408582445200000005962055792070866575_"  overflow="visible"/>
										</clipPath>
										<g clip-path="url(#SVGID_00000183216435422938454170000002236215357038747805_)">
											<g>
												<g>
													<defs>
														
															<rect id="SVGID_00000042729894147500056280000002554867731698047658_" x="1144.3876" y="30.5654" width="14.8" height="34.5154"/>
													</defs>
													<clipPath id="SVGID_00000041981149711758084760000001968226770012612541_">
														<use xlink:href="#SVGID_00000042729894147500056280000002554867731698047658_"  overflow="visible"/>
													</clipPath>
													<g clip-path="url(#SVGID_00000041981149711758084760000001968226770012612541_)">
														<g>
															<defs>
																
																	<rect id="SVGID_00000080911225409444793250000010876604311746731649_" x="1144.3876" y="30.65" width="14.8" height="34.5154"/>
															</defs>
															<clipPath id="SVGID_00000072975785953105283420000015921313474072991678_">
																<use xlink:href="#SVGID_00000080911225409444793250000010876604311746731649_"  overflow="visible"/>
															</clipPath>
															<g clip-path="url(#SVGID_00000072975785953105283420000015921313474072991678_)">
																
																	<use xlink:href="#usb"  width="14.8" height="34.5154" id="USB-port_1_" x="-7.4" y="-17.2577" transform="matrix(1 0 0 -1 1151.7876 47.9923)" overflow="visible"/>
															</g>
														</g>
													</g>
												</g>
											</g>
										</g>
									</g>
								</g>
							</g>
						</g>
					</g>
				</g>
			</g>
		</g>
		<g>
			<g>
				<g>
					<g>
						<defs>
							<rect id="SVGID_00000091701243170532551840000002853397431734697893_" x="1149.0695" y="69.921" width="8.9" height="21.2"/>
						</defs>
						<clipPath id="SVGID_00000103232252936135450940000006220719735675885751_">
							<use xlink:href="#SVGID_00000091701243170532551840000002853397431734697893_"  overflow="visible"/>
						</clipPath>
						<g clip-path="url(#SVGID_00000103232252936135450940000006220719735675885751_)">
							<g>
								<g>
									<g>
										<defs>
											
												<rect id="SVGID_00000132068002057676616490000002355378673635256465_" x="1149.1694" y="70.021" width="8.8" height="21.1"/>
										</defs>
										<clipPath id="SVGID_00000141450085897046133690000003321178426226961296_">
											<use xlink:href="#SVGID_00000132068002057676616490000002355378673635256465_"  overflow="visible"/>
										</clipPath>
										<g clip-path="url(#SVGID_00000141450085897046133690000003321178426226961296_)">
											<g>
												<g>
													<defs>
														
															<rect id="SVGID_00000062894214550435991260000015691991505850982532_" x="1149.1694" y="70.021" width="8.8" height="21.1"/>
													</defs>
													<clipPath id="SVGID_00000050651900512703406290000000881321099867280530_">
														<use xlink:href="#SVGID_00000062894214550435991260000015691991505850982532_"  overflow="visible"/>
													</clipPath>
													<g clip-path="url(#SVGID_00000050651900512703406290000000881321099867280530_)">
														<g>
															<defs>
																
																	<rect id="SVGID_00000020377158395594876460000011341057192016732311_" x="1149.1694" y="70.021" width="8.8" height="21.1"/>
															</defs>
															<clipPath id="SVGID_00000080926080264762398350000007270157658651449757_">
																<use xlink:href="#SVGID_00000020377158395594876460000011341057192016732311_"  overflow="visible"/>
															</clipPath>
															<g clip-path="url(#SVGID_00000080926080264762398350000007270157658651449757_)">
																
																	<use xlink:href="#micro_USB_2"  width="8.8" height="21.1" x="-4.4" y="-10.55" transform="matrix(1 0 0 -1 1153.5695 80.571)" overflow="visible"/>
															</g>
														</g>
													</g>
												</g>
											</g>
										</g>
									</g>
								</g>
							</g>
						</g>
					</g>
				</g>
			</g>
		</g>
	</g>
</g>
<g id="drivegroup-0">
	<g>
		<g>
			<g>
				<defs>
					
						<rect id="SVGID_00000117672349300236851710000000228804501250175627_" x="81.7948" y="20.0082" width="177.3728" height="36.2386"/>
				</defs>
				<clipPath id="SVGID_00000177469703185702467640000006944632549209578421_">
					<use xlink:href="#SVGID_00000117672349300236851710000000228804501250175627_"  overflow="visible"/>
				</clipPath>
				<g clip-path="url(#SVGID_00000177469703185702467640000006944632549209578421_)">
					<g>
						<defs>
							
								<rect id="SVGID_00000023991615874023095830000014256359692994447749_" x="81.7948" y="20.0082" width="177.3728" height="36.2386"/>
						</defs>
						<clipPath id="SVGID_00000051370406714391559730000004685708213391562932_">
							<use xlink:href="#SVGID_00000023991615874023095830000014256359692994447749_"  overflow="visible"/>
						</clipPath>
						<g clip-path="url(#SVGID_00000051370406714391559730000004685708213391562932_)">
							
								<use xlink:href="#New_Symbol"  width="177.3728" height="36.2386" x="-88.6864" y="-18.1193" transform="matrix(1 0 0 -1 170.4812 38.1275)" overflow="visible"/>
						</g>
					</g>
				</g>
			</g>
		</g>
	</g>
	
	
	<g id="LEDs_00000165212524250285089140000012753016351127977873_">
		<g id="LED-on_00000037693029925883693400000002965378919592490134_">
			<path id="led-health-on_00000050640178840614376660000014973288374552411012_" fill="#73C828" d="M88.5954,29.7898
				l-0.0932,0.3726c0,0,0,0-0.0932,0l0,0l0,0l-0.3726-4.7511l0,0l0,0h-0.5589l0,0l0,0l-0.4658,4.0058l0,0h-1.6768v0.4658h2.1426l0,0
				l0.2795-2.4221l0,0l0,0l0.2795,4.1921l0,0h0.4658l0,0l0.559-1.9563c0,0,0,0,0.0932,0l0,0l0,0l0.0932,0.1863l0,0l0,0h1.5837l0,0
				c0.0932,0.2795,0.4658,0.3726,0.7453,0.2795c0.2795-0.0932,0.3726-0.4658,0.2795-0.7453
				c-0.0932-0.2795-0.4658-0.3726-0.7453-0.2795c-0.0932,0.0932-0.1863,0.1863-0.2795,0.2795l0,0H89.527l0,0l0,0l-0.5589-1.1179
				c0,0,0,0-0.0932,0l0,0L88.5954,29.7898z"/>
			<path id="led-status-on_00000072241795882837002250000005512659394181211030_" fill="#73C828" d="M86.0801,45.6267v3.9126
				c0,0.4658,0.8384,0.9316,2.0495,0.9316h0.0932c1.2111,0,2.1426-0.3726,2.1426-0.8384v-3.9126
				c0-0.4658-0.9316-0.9316-2.0495-0.9316h-0.0932C87.0117,44.7883,86.0801,45.1609,86.0801,45.6267z M89.9928,49.6325
				c0,0.1863-0.6521,0.5589-1.77,0.4658h-0.0932c-1.1179,0-1.6768-0.4658-1.77-0.5589v-3.3537
				c0.3726,0.2795,1.0247,0.3726,1.77,0.4658h0.0932c0.559,0,1.3042-0.0932,1.77-0.3726V49.6325z M88.2228,45.1609
				c1.1179,0,1.6768,0.4658,1.77,0.5589v0.1863c-0.1863,0.1863-0.8384,0.4658-1.77,0.4658c-0.8384,0-1.5837-0.2795-1.77-0.4658
				v-0.1863C86.4528,45.5335,87.0117,45.1609,88.2228,45.1609L88.2228,45.1609z"/>
		</g>
	</g>
</g>
</svg>
